/* XPM */
static char *_8a92ec55f7842a0aad42033746c0d6baDJYz18vYKTXVuMz[] = {
/* columns rows colors chars-per-pixel */
"86 86 197 2 ",
"   c #554D51",
".  c #5B545E",
"X  c #645F5F",
"o  c #626655",
"O  c #69635C",
"+  c #66685C",
"@  c #4A546A",
"#  c #4E5C6D",
"$  c #5E5C62",
"%  c #5B5965",
"&  c #545B6F",
"*  c #495676",
"=  c #4D5B75",
"-  c #4E5C7B",
";  c #525E75",
":  c #525E7C",
">  c #625C66",
",  c #625E69",
"<  c #695F6A",
"1  c #576377",
"2  c #5A6176",
"3  c #54617D",
"4  c #5C657C",
"5  c #5C697D",
"6  c #656365",
"7  c #6A6463",
"8  c #6E6A64",
"9  c #66636C",
"0  c #6A646C",
"q  c #72696A",
"w  c #696472",
"e  c #6E6B76",
"r  c #62637D",
"t  c #61697E",
"y  c #706E74",
"u  c #827D79",
"i  c #8A8E7C",
"p  c #525F83",
"a  c #4E6386",
"s  c #556383",
"d  c #5A6685",
"f  c #566985",
"g  c #5C6986",
"h  c #566589",
"j  c #5A668A",
"k  c #576A8D",
"l  c #5C6A8B",
"z  c #5E708C",
"x  c #576690",
"c  c #5D6592",
"v  c #5D6B92",
"b  c #5E6D99",
"n  c #5F7092",
"m  c #666682",
"M  c #696781",
"N  c #626B83",
"B  c #6C6A84",
"V  c #60668D",
"C  c #616D8C",
"Z  c #657087",
"A  c #697085",
"S  c #64718D",
"D  c #6A758C",
"F  c #6C798F",
"G  c #616796",
"H  c #616C92",
"J  c #657392",
"K  c #697692",
"L  c #677894",
"P  c #6B7994",
"I  c #667698",
"U  c #68779A",
"Y  c #6D7C9A",
"T  c #727D94",
"R  c #717E9B",
"E  c #6E7FA3",
"W  c #727EA1",
"Q  c #75829C",
"!  c #788399",
"~  c #79849C",
"^  c #7583A2",
"/  c #7986A3",
"(  c #7688A4",
")  c #7E8BA3",
"_  c #7D8CA9",
"`  c #818086",
"'  c #88818B",
"]  c #958D91",
"[  c #9B9C94",
"{  c #9C949E",
"}  c #969898",
"|  c #9A9C9E",
" . c #9DA18F",
".. c #A0A296",
"X. c #818DA6",
"o. c #8E8CA6",
"O. c #818DAB",
"+. c #8692A6",
"@. c #8A94A6",
"#. c #8594AC",
"$. c #8A96AC",
"%. c #8798AB",
"&. c #8C99AE",
"*. c #9E96A1",
"=. c #959BA3",
"-. c #9D9BA3",
";. c #9296AC",
":. c #929BAE",
">. c #8594B2",
",. c #8996B3",
"<. c #8799B2",
"1. c #8C9AB4",
"2. c #8795B8",
"3. c #8C97B8",
"4. c #8D9CB9",
"5. c #929DB3",
"6. c #9B9CB3",
"7. c #919DBA",
"8. c #A194A1",
"9. c #A099A3",
"0. c #93A0AF",
"q. c #9EA0AC",
"w. c #8EA1B3",
"e. c #8FA1BC",
"r. c #93A1B5",
"t. c #9AA4B6",
"y. c #93A2BC",
"u. c #9BA6BB",
"i. c #9CA9BD",
"p. c #A1ADBE",
"a. c #A4B2BF",
"s. c #BEB6BA",
"d. c #C5B9BD",
"f. c #919FC1",
"g. c #9BA6C3",
"h. c #9AA9C6",
"j. c #9DABC4",
"k. c #A1ADC5",
"l. c #A1ADC9",
"z. c #A4B2C5",
"x. c #A9B5C4",
"c. c #AABBC6",
"v. c #A5B2CA",
"b. c #AAB6CB",
"n. c #ACB9CD",
"m. c #B1BBCE",
"M. c #A6B4D0",
"N. c #AAB6D2",
"B. c #ADBAD2",
"V. c #AFBBD9",
"C. c #B2BED3",
"Z. c #B2BEDA",
"A. c #B5C2CF",
"S. c #B8CDCF",
"D. c #B4C2D4",
"F. c #BAC4D5",
"G. c #BDCBD6",
"H. c #B5C3DB",
"J. c #BBC6DC",
"K. c #BAC9DF",
"L. c #BECBDC",
"P. c #BECADD",
"I. c #BDD2D4",
"U. c #B6C5E2",
"Y. c #B9C6E1",
"T. c #BECBE2",
"R. c #BECCE9",
"E. c #BFD1E3",
"W. c #CCC8C7",
"Q. c #CFC4CF",
"!. c #D5C5C4",
"~. c #DAC9C7",
"^. c #D2C6CB",
"/. c #D6CACE",
"(. c #DACFCF",
"). c #CBD1CC",
"_. c #C3C6D4",
"`. c #C2CBD6",
"'. c #C9CBD6",
"]. c #C0C7DA",
"[. c #C1CCDC",
"{. c #CACDDA",
"}. c #D2C7D3",
"|. c #C5D1D5",
" X c #C3D1DD",
".X c #CDD1DE",
"XX c #C1C7E0",
"oX c #C2CDE2",
"OX c #C8CFE2",
"+X c #C1CDE9",
"@X c #C4D1E3",
"#X c #CAD3E4",
"$X c #CCDBE7",
"%X c #C5D2EA",
"&X c #C9D5EB",
"*X c #C5D4F0",
"=X c #C8D7F2",
/* pixels */
" X X|.|.).).^./.^.}.d.q O X O 8 9 0 q w 9 ` -.-.-.=.=.=.=.=.:.=.&.5.:.6.6.;.B M m B w e 9 > 6 7 7 7 8 8 7 O O q q > 6 u [ [ } } q. .0.0.6.o.[  .[ .. .i o o + + + 7 8 7 q > ",
"L.J.].F.J.L.].]._.{.C.2 V S V V l v l s s W 1.4.1.4.1.,.,.$.,.,.4.4.4.4.2.,.g f l l l h c v v v j j k l l c l l d g j / 4.f.2.3.1.<.<.<.1.1.4.2.4.7.3.,.v l G G G c l V C s ",
"OX@XOXOX#XOX[. X[.OXF.2 V j V V c v v j j W 3.4.2.1.5.4.5.4.5.5.5.3.1.4.4.1.f s g s h s l k l l j l c c v l l V V g l R 2.4.,.4.<.e.1.1.w.e.1.2.3.3.2.3.l g G v c c V V l - ",
"L.L.L.T.T.T.K.K.L.+XZ.s l d j j x v b k h E 4.2.1.1.4.3.4.2.2.4.,.1.,.1.<.1.l g g g f g h h l h s h l f f l s f g s s Y 4.4.1.1.4.<.1.<.1.e.4.4.4.4.4.3.h h l l c x v l k a ",
"L.T.XXXXXXT.T.T.Y.@XH.s v s v k x v b x a ^ e.y.1.4.7.2.3.1.3.2.4.3.1.4.e.#.S l l C S l l v l v b v H v l l l S S l l ^ e.e.4.e.1.,.<.1.4.#.f.f.2.7.f.2.c l b v b x j H k s ",
"[.[.[.[.[.[.OXoXT.%XB.1 C 3 l h k x k s s ,.Y.T.H.K.J.u.3.,.3.6.v.J.L.L.J.J.J.G.F.F.D.F.F.F.F.F.H.F.F.F.F.F.A.D.A.F.F.F.H.Y.J.J.H.y.<.,.r.$.N.oXY.XXXXJ.J.H.H.Y.Z.O.: N k f ",
"[.[.[.XX[.[.oXXXT.@XB.5 g 3 l l c l l a s ,.T.@XK.L.T.7.3.,.6.,.v.OXY.T.oXXX[.[.[.[.[.[.XXXX[.T.L.[.[.[.[.[.[.[.[.`.[.[.L.T.T.T.Y.y.1.$.1.$.n.oXXXXXXXXXT.T.T.+XY.2.3 N f f ",
"[.[.[.[.T.[.oX[.Y.oXB.N f 3 l l l l l s 3 >.K.L.G.L.T.5.5.,.7.#.z.@XJ.[.[.[.oX[.[.[.XX[.oXoXT.XXT.T.T.L.[.[.[.`. X`.`.[.L.[.T.T.L.5.1.$.w.#.B.T.XXoXOXoX[.L.L.XXT.+.1 r f l ",
"[.[.`.`.L.L.L.L.K.oXn.1 l 3 l l v v l s 3 ,.E.&X[.@X@Xr.5.,.7.+.x.$XJ.L.[.[.].oX[.[.oX[.XX[.T.T.oX@XoX@X X@X X[.G.`.[.`.[.[.T.oXL.:.1.%.r.+.n.@XXXOX[.oX[.[.L.oXT.o.d B z z ",
"oX@XoX@XoXoX XoXT.&XH.1 C s l l l l z s 1 <.E.E.G. X@Xr.7.,.5.+.x.#XL.L.[.L.OX[.[.J.[.].T.T.T.oXT.oXT.T.OX#X[.[.G.[.[.`.L.L.[.L.L.&.&.%.w.%.n.E.XXXX`.`.[.`.J.#X[.T @ & - - ",
"u.t.u.t.u.t.u.i.i.i.1.g C d l l l l l 3 3 ( z.c.z.x.z.&.7.,.5.+.c. XL.L.[.OX[.[.].[.XXXXoXT.T.oXJ.v.b.z.z.z.F.].[.[.[.[.L.L.[.oXL.&.&.%.w.%.c.@XoXOX[.[.[.`.`.[.[.v.t.t.4.h.",
"= = = = = ; = ; = = 3 f g j g f g l g f s Q w.w.%.%.$.<.1.,.1.+.c.`.[.[.[.{.[.[.J.[.[.OXXXXXJ.oXC.1.r.$.:.$.D.L. X X{.[.L.[.L.oXK.0.0.#.0.%.b.L.XXOX`.[.[.[.[.`.].oX#XoX%X%X",
"N g N g C C N g f l g l j j j g g g g 3 3 Q %.%.%.%.#.%.1.<.1.+.x. X`.[.[.[.].].[.[.[.[.[.oXoXoXD.$.&.@.:.@.A.`.[.[.[.[.L.L.[.[.L.5.r.%.w.%.n.oX[.OX`.[.[.`.[.`.].XX].oXT.+X",
"j g l g j l h h j j l l l l g V z g g f f ^ 1.1.w.w.e.<.1.1.1.+.a.#XF.].[.[.`.[.].].[.`.].[.oXXXF.,.:.$.r.:.`.`.[.`.L.`.oXL.T.L.J.5.r.&.w.#.n.XX[.[.[.`.G.[.[.[.OXXX].[.oXXX",
"l C H l l l l l l l v v j j V j 3 3 f 3 3 Q e.e.1.w.w.4.1.1.1.$.c. X`.[.[.`.`.`.[.[.[.].].[.].XXF.:.:.$.5.:.`.[.[.[.[.L.L.[.T. XL.1.&.<.<.%.N.OX].[.].`.I.[.[.[.XXoX`.{.T.T.",
"J H S H J S l l z J H l k j C f D F Q F L ~ w.y.w.r.y.w.r.5.r.r.c.[.`.[.[.[.].[.[.`.[.[.[.[.[.[.`.r.t.:.t.:.F.[.[.[.[.T.L.oXT.oXY.&.+.<.#.>.B.oX{.[.].`.G. XL.[.oXoX[.[.L.T.",
"2.,.2.<.1.2.>.,.<.<._ n k k g C v.J.T.T.T.Y.H.Y.K.K.L.J.L.Y.L.J.L.[.`.`.[.[.`.[.[.`.L.[.[.[.[.[.J.D.[.[.L.C.[.[.[.[.L.L.T.T.oXoXL.P g g z 5 i.XX].{.`.].L.I.[. XoXoX[.[.L.E.",
"<.<.1.1.1.<.<.%.&.%.<.l l c g : n.oXT.L.L.L.L.L.[.`.G.L.L.[. X[.[.L.T.T.[.].].[.`.[.`.`.L.[.[.[.].[.[.XX[.[.[.[.[.[.@X[.oXT.[.T.J.D g g z * k.%X]. X`.[.L.|.[.[.oX[.J.[.L.L.",
"4.e.e.4.e.e.1.w.w.1.2.s l l g 3 B.&X@X@X@X@X X@X X X X[. X X X XJ.XXL.L.[.[.L.[.[.].[.[.[.[.[.XX[.OX@XoXoXOXL.L.L.T.@X[.T.T.L.T.K.Z 3 d f * j.%X`. X[.`.L.[.L.L.oXT.[.[.E.L.",
"1.2.<.<.<.<.<.<.<.,.#.g j v V 3 n.oXJ.L.L.L.G.L.`.G.[.`.G.L.[.L.L.L.L.[.[.[.[.`.[.`.`.].[.`.[.[.[.oX[.[.`.L.L.L.L.[.T.[.T.T.T.oXJ.B d S l - l.@X`.[.`.`.[.G.[.L.T.T.L. XE.L.",
"4.4.e.4.4.4.4.e.1.<.#.g l l l 3 n.@XL.L.L.[.[.@X X[._.[.L.[.L.L.T.[.L.L.[.[.`.[.`.[.`.[.[.[.].XX[.XXoX[.[.oXT.L.T.[.oXT.T.T.L.T.J.S d S j * k.%X].[.`.`. XG.T.L.[.XX[.[.E.L.",
"Y Y Y U U Y Y Y Y Y U f f C g 1 n.T.F.oX[.n.p.i.z.a.p.G.L.[.L.L. XL.[.[.].`.[.`.L.[.`.[.[.[.XX[.[.[.[.[.[.[.[.[.L.L.[.oXL.T.T.T.J.S d C l - l.*X].oXG.L.L.G.[.L.T.T.[.#XT.T.",
"h h h h g h f g g s g g g V Z 1 n.E.L.[. Xn.&.@.&.@.%.F.[.[.L.[.L.[.[.[.`.[.[.`.`.[.J._.[.`.[.[.[.J.[.XXOX[.L.L.J.[.L.T.T.T.T.XXJ.S g V G - l.+XJ.oXL.G.L.I.L.L.XXXX[.oXT.T.",
"l k j l j l l j j l l g C f g 2 b.@XL.L.oXD.&.:.r.0.:.Y.L.[.[.[.[.[.[.`.[.[.[.[.[.`.L.[.[.`.J.J.L.[.OX[.[.XXT.[. X[.oXoXT.XXT.oXT.Z s s H : k.%X`.[.G.[.I. XL.L.oXXXXXoXT.T.",
"l h l h k h j j f j j g g : g ; b.E. XJ.@XC.+.+.&.$.$.L.T.[.L.[.[.[.[.[.[.[.[.[.[.[.[.[.#X[.[.OXOXOX[.].L.[.L.[.L.L.[.L.T.T.T.T.J.C s C V - l.*XL.L.L.I.L.G.L.L.T.T.XXXXXX+X",
"l l l l j k j c l l g g N 3 g ; n.@X[.J.@Xn.$.$.5.&.1.L.L.OXJ.[.[.oX[.[.[.[.[.[.[.[.[.[.OX[.].[.XXoXOXoXoX@X[.[.[.@X@X@XoXoXT.%X+XD s S V * l.&XL.@XE.I.I. X X[.oX#XOXOX+X+X",
"j l k j l v v l j l j R F D F D D.@XT.@X@XD.u.i.j.u.u.J.oX].J.[.oX[.[.[.[.[.[.[.[.[.[.F.m.m.C.C.C.x.n.n.n.n.n.n.b.n.n.n.b.b.B.B.v.K s g g j 7.N.A.A.A.a.c.c.n.c.B.n.n.m.N.N.",
"f j f j j j l h j l C 3.1.4.1.&.B.oXL.L.L.L.T.@X[.L.[.L.oX[.[.[.[.[.[.[.[.[.OX[.L.oX[.z.$.&.5.&.+.: 1 : 4 1 3 3 s 3 3 3 s s d d g g j j l v g p - - 3 : 3 3 3 3 s s : : 3 j ",
"j g g l l l l j j j H 7.3.5.5.1.D.@XK.K.L.L.@XL.[.oXL.L. XL.[.`.[.[.[.[.[.`.oXL.T.oXJ.k.+.$.:.$.X.4 C d g N g g V g l g g V C g g l g g l l g j z Z g z f g C C C V N V C g ",
"g g g g g g g l H s I 3.2.2.<.,.B.E.G.K.L.L.J.I.J.G.G.L.L.G.[.L.`.L.[.L.T.L.T.L.T.T.J.l.1.,.7.3.,.g C d j j j j l j v j v l j j V V G v G G v V g l l l j j l j j j d m j g ",
"5 f 3 3 f d l j H h L 4.<.<.1.$.H.E.E.E.L.L.L.L. X X X[. X[.[. X[.[.[.@XoXoXoXOX+XOXoXz.1.5.7.7.>.d N g j l v l v l v v v c c l V g j j c c j j j f h h k k j j j j d d j j ",
"5 5 5 g g g f g V s L 4.4.4.1.$.D.Y.Y.E.T.K.T.T.L.T.T.T.L.J.T.J.T.XXJ.T.[.T.T.Y.T.T.Y.l.2.,.3.2.>.s l h v v k c j k j j j l g l j j d g g f g g 5 g g f l l l g g g N g g l ",
"D.n.n.D.Z.#.s g l g I 4.4.4.<.#.u.y.i.j.j.$.~ R ! ! ~ ~ R ~ ~ ~ ! ! ~ ~ ~ ~ ~ ~ ~ ~ ~ P J J L J J s l l v l l v v j j l l j l l L v.U.H.V.V.D.B.B.D.B.v._ _ 4._ _ 2.&.#.>.,.",
" X XY.&X%X1.: J j s J 4.4.1.1.1.1.%.%.1.5.Q : : s p p s p p s s s s s s : s 3 : 3 3 s f f s s f c v k v c j k j l l f f l l s g Z K.@XT.L.T. X XI.@XT.Y.w.<.e.e.w.e.5.5.2.4.",
"L.L.J.@XXX&.: S j s S 3.,.4.<.<.%.&.1.r.2.~ g g V C V j j V V V V H V V g V N g g g l l l l l h k l k h j k k h l l l h g g s g S K.L.T.L.L.L. XI.L.S.Y.w.e.e.e.w.4.1.5.3.7.",
"L.G.J.@XOX&.: J l s C 4.1.5.1.w.w.w.<.w.y._ g j l V C j j C l l l l g l g g C g f g g l l g g z v H l l v j h k k l l l g g f g z H.E.Y.L.E.L.L.K.I.K.H.%.<.<.w.<.<.%.4.3.>.",
"L.G.G.@XoX,.: S j s K 3.%.%.%.%.%.%.+.#.,._ g g C v V l j j V v V j l l g j C g g g l s = = - - : - - - - k h s l l l j g h f f z H.&X%XL.E.@X@XL.#X%XD.<.<.e.<.1.,.,.5.7.,.",
"I.G.G.@XOX:.s C g s T l.z.b.z.z.z.z.z.k.b.7.- g g l g g j g g g g C j N j N g g g g g _ 4.y.1.e.7.4.1.y.4.4.J s v l j v l l g g S y.j.l.j.j.j.j.j.j.h.e.w.w.<.4.4.4.1.5.7.3.",
"G.G.G.E.OX,.; S g s R U.L.&X@X X@X@X@XE.&Xv.: g g l l l g j j l C g j g g g g j g g s j.=X=XR.@XoXT.R.*X%XR.( s l k l l l j l g s g = = = = = = - = = L <.e.4.e.1.4.1.5.7.,.",
"L.G.K.@XoX,.: C V s / XXG.L.G.G.L.L.L.Y.oXl.3 V l C V l j j g g g g j g s g V C l l 3 j.T.K.T.L.T.L.Y.@XU.T.^ s l k l l l l l l l l z z l l f l z g f Q _ <.<.<.4.1.>.1.4.,.",
"[.G.L.@X@X,.: S C p X.OX].{.G. XI.L.@XT.&Xk.3 l g C j d l l f g l g g l g g j g g C : v.@XT.T.L.L.L.K.[.J.+X^ = j s l l h j s j s s f s s f l l l f f Q %.1.1.w.e.e.1.w.e.e.",
" XG.L.@X@X$.: C V p T XXG. XG.G.L.L.oXL.@Xj.3 f j j d s g s d s s d f g g s g j l V : v.&XT.L.[.L.G.L.@XT.].R : v l l l l j l l l l l l l g h j l s 3 U #.1.<.1.<.4.1.1.<.e.",
"[.L.J.#XoX$.: C C p R T.`. XG.G.L.L. XL.@Xl.3 g j C V W H J J J l S S J H Y s d V j s u.T.T.F.D.G. X[.@XT.H./ C l g V g l l l s l s l j l s l J l k g Q %.1.1.1.<.1.&.<.<.<.",
"|.G.G. XOX&.: S C p R XXL. XG.`.L. X[.@X%Xl.: C j g C Z.U.XXT.Y.G.K.Y.T.J.C.j g l l g V K S Z N ~ &.r.5.1.5.+.,.2.4.4.4.2.,.2.1.1.g C g l s / 3.2.4.4._ g g l C v l g N l z ",
"G.G.F. XOX$.: C H p R +XL.L.G.G.L.L.L.T.@Xl.3 g j C C U.R.%XT.T.T.T.E.R.R.U.S s C g C g C g N 4 F 1.5.5.&.1.,.5.4.7.5.4.1.4.4.4.3.g g s g s O.7.3.4.3.>.5 g g f l l C j g l ",
"I.G.F. XT.#.: H l p ~ +XL.T.G.G.L.L.L.L.oXl.3 N g g C Z.@XY.T.T.L.K.L.L.%XH.l g V g l l j d C s K 7.4.4.5.,.5.1.1.4.5.5.1.1.5.1.,.d j 3 g d / 7.3.7.,.$.g g g g l k g j h s ",
" X|.@X$X&X&.; C l s ( R.L.%XL.L.L.[.@XT.%Xv.3 g V g C H.oXY.L.[.@XL.L.Y.%XH.S g l l V g j j C s K 7.1.5.3.1.1.1.&.&.1.&.,.&.1.5.5.N d g F g X.7.&.4.#.,.5 g J l k h j l v n ",
"@X@XoX&X%X,.: H g s / R.T.@XE.L.L.[.oXL.%Xz.3 C g g C H.@XT.L. XL.L. XL.T.H.S f l l l l j g j d K 7.,.4.&.5.&.1.:.&.&.:.&.1.5.&.#.; ; @ ; # T ,.$.5.&.+.# # 1 2 : : ; & * 3 ",
"&.%.%.1.1.T s g v s Y M.l.z.z.z.x.z.z.z.b.r.4 g C g N Z.[.L.L.L.[.G.L.L.+XF.C g j l l c l j l g U e.<.1.1.&.z.v.v.b.b.z.b.v.b.n.B.i.k.g.k.u.v.b.v.b.v.n.z.i.j.j.l.j.k.k.h.h.",
"- 3 - - - d g l l j P 1.$.2.$.1.&.$.+.&.&.) d 3 N g N Z.#XL.[.G.G.[.L.L.XXF.C g j l V l g g f f K 1.&.&.0.&.G.L. X X@X[.oX[.oXoXoX@XOXOXOX+XOXOXOXoX XoX X X XI.oXOXoXOX%XR.",
"C S S S H l l s j s J 4.,.1.$.1.$.$.$.1.<.) d d C g N J.@XL. X[.G.I.[.L.%XH.C g g l l l s f l f K r.&.1.r.%.J.L.@X X@X XoX[.oX@XoX@XXX[.[.XXL.oXOXOX XL.G.G.G.L.L.L.[.[.T.%X",
"g C g f f g z l C d J r.1.7.7.5.1.5.1.5.7.X.g g C N C Z.@XL.L.[.G.G.L.L.XXH.C j l l j l j g l s K 4.<.<.w.1.J.L.L.L.G.L.L.L.J.L.L.T.@XoX[.XX[.XXXX[.F.`. XI.L.|.T.T.L.T.T.R.",
"s : 3 3 : 3 3 3 3 3 J 1.1.4.1.4.1.&.,.4.3.X.d d C g C Z.&X#X[.@X X[.#X@X%XC.C g l j l l l l l f L <.#.,.1.&.D.Y. XL.G.L.L.L.L.L.T.[.XX[.[.[.XX[.[.[.`.`.`.`.`.L.L.L.F.[.T.R.",
"Q Q ~ ~ ^ ~ / ~ Q Q ^ X.2.>.2.+.>.>.#.>.O./ d d g g C l.Z.F.n.m.D.C.b.D.Z.k.S g l j j l l l l s U >.>.>.#.$.D.J. X XL.L.L.L.L.[.L.[.[.L.[.[.[.[.[.XX X[.`.[.L.L.T.T.F.J.U.U.",
"T.T.T.T.T.oXT.R.T.T.N.S g f s g f f s g g C g C V g : N 3 g N 5 2 4 N 5 ; N s g C g j j j g l s h l f f g z D.T.L.oXG.[.L.L.[.oX[.L.L.L.L.[.[.[.XX[.[.[. X`.L.[.L.z.,.;.4.4.",
"oX[.oXT.oXT.T.oXT.%XV.; g l s j l j j j g j l l C g g g V C g g C g g f C g V l g j j j k j k l k l f S g 3 n.@XL.L.L.@XL.L.[.L.[.L.L.L.[.[.`.`.[.[.[.[.`.[.[.[.J.l.5.5.4.1.",
"L.L.[.L.L.L.K.T.Y.&XH.3 S g s h l l l l v h j g g g g j g g d d g d d g g g C g f s s l k l k k l h s s f 2 Z.%XL.[. X[.[.L. X[. XL.L.L.@X X[.[.[.[.`.[.`.[.[.[.J.l.@.$.2.>.",
"J.T.L.[.T.L.L.[.K.@XB.1 g g H l h c v v l v l l C V g g C C g l C C C C C j s j z n v l k l v l k l l s l 3 C.XXJ.L.L.L.L.L.L.L.L.L.L.L.[.[.[.[.`.[.{.[.{.[.[.[.L.l.;.1.7.7.",
"oXoX@XoX@X[. X@X@X@XB.l g s l h h h a s s p s p s : : : : : : s : p p p s : : : 3 - - s l l k l j j l s l g C.T.[.oX X X X[. XL.G.L.L.L.[.[.[.[.[.[.{.[.[.`.[.[.T.l.+.+.4.4.",
"u.u.i.i.i.i.i.u.j.i.u.~ O.X.#.>.l.M.N.N.N.B.B.b.N.n.B.b.N.b.n.n.B.B.n.B.n.N.n.b.b.B.B._ s s l z l k l f C d g.g.j.j.u.g.j.i.i.i.a.G.G.L.`.[.[.`.`.`.`.[.`.[.[.[.T.C.C.C.H.H.",
"&.&.$.#.$.%.$.$.&.&.5.&.y.4.,.5.H.T.%X%XR.E.@X@XoXoXoXoXT.T.T.T.R.T.@X@XoX@XT.oXE.%XE.<.s 3 z z l l l j V s #.,.,.3.$.$.&.&.$.@.&.F.G. X`.[.`.`.[.[.`.[.`.[.[.[.T.T.OX#XR.T.",
"&.5.1.:.5.1.5.1.5.1.&.1.:.&.5.$.D.J.L.L.G.G.L.L.G.L.L.L.G.L.L.L.L.L.L.L.[.L.L.L.G. XT.%.3 3 C l f f s s N V 2.7.6.7.7.7.5.5.&.1.0.L.L. XL.`.[.`.[.`.[.].[.`.`.[.J.T.[.[.T.T.",
"&.&.&.&.1.5.:.1.1.&.&.5.r.&.&.$.D.L.L. X[.L. X`.[.G.[. XL. XoX[. XL.G.J.G. XL.I.I.@XT.%.: 3 l l d f S g V C 3.3.3.2.>.3.5.,.&.&.&. X[.oX`.].[.[.`.[.[.`.`.|.[.[.L.]. X#XT.T.",
"1.1.1.5.1.1.1.1.4.1.1.1.5.&.&.$.A.@XL.L.G.[.G.L.G.G.G.G.[.[.@X XL.oX[.oX X@XI.L.G. XY.#.3 g g f 5 - = = : : X.$.1.,.$.&.5.5.5.&.1.L.oXoX`.[.[.`.{.`.[.`.G.`.L.L.oX[.[.[.L.T.",
"1.&.1.1.1.1.1.1.1.1.1.1.:.$.:.$.D.@XL.[.L.L.[.L.L.[.[.[.L.[.T.[.F.b.C.m.D.m.L.L.G. XT.%.: V g d K %.#.#.#.,.k.l.v.v.l.u.1.1.:.&.1.L.[.@XL.[.`.`.`.[.`.`.`.|. XL.L.[.[.[.[.OX",
"1.1.<.<.<.1.1.4.1.1.,.5.1.1.1.$.C.@X[.[.[.[.[.[.L.[.[.oX[.[.T.XXN.@.&.$.:.5.oXL.L.@XoX,.: H g 3 ( oXJ.@XK.T.[.L.L.[.[.v.:.$.1.1.1.L.T.oX[.[.[.[.`.`.L.G.I.G.G.L.L.L.`.`.].#X",
"1.w.<.w.<.4.<.4.1.4.1.5.&.$.1.&.Z.@XL.XX[.oX[.[.[.[.oX[.XX[.T.XXb.@.5.@.&.&.oXoXJ.@XR.,.: H g 3 X.&X@X&XT.@XoXoX@X@XE.c.$.$.5.:.r.T.L.oX[.[.].[.`.`.I.G.G.I.G.I.[.[.'.[.].#X",
"1.<.1.<.1.1.1.1.,.4.&.,.5.$.:.$.C.@XL.[.[.[.[.[.L.`.[.[.[.[.J.OXm.&.5.:.5.5.[.[.J.oXT.#.: C g 3 ~ oXH.L.Y.J.L.Y.Y.T.T.v.&.&.1.1.1.T.T.oXJ.T.[.XX[.[.[.L.G.G.L.L.T.[._.J.XX&X",
"1.1.<.1.1.1.4.<.1.4.<.1.1.1.&.&.C.@XL.L.[.[.[.L.L.[.[.].[.XXJ.XXb.o.6.&.&.r.[.J.J. XT.#.3 g g 3 ) %XY.oXT.T.T.T.T.@X%Xn.1.1.7.r.7.T.T.@XXXL.[.oX[.[. X XI. XL.L.XXoX[.OXoX%X",
"<.<.1.1.4.<.1.1.<.1.4.1.&.&.&.$.C.OXL. X XL.|.L.[.[.[.`.L.`.L.[.b.@.r.$.:.i. X[.G.@XT.&.3 f N 1 ) %XT.%XT.Y.Y.U.U.L.R.N.<.<.4.1.4.R.T.oXT.T.T.oX[.[.[.L. XL.L.L.T.Y.J.J.R.XX",
"1.&.1.<.1.1.4.<.<.1.1.1.5.&.&.&.m.@XL.L.L. XL.G.`.L.`.[.oX_.[.oX[.C.[.[.G.F.L.L.[. XT.k.#.,.,.X.+.i.5.y.1.e.( Y Q K I S N l z l S 4.7.y.5.5.5.5.r.r.0.r.r.&.:.r.5.) T T W R ",
"&.1.1.1.1.1.1.4.4.1.&.1.1.&.1.%.D.oXL.L.L.L. XL.L.L.[.`.L.OX#X[.J.T.[.`.J.[.T.[.L.L.T.z.,.$.4.,.2.<.4.e.<.<.l - f s f g l g g l l 1.1.4.&.1.1.1.1.&.0.&.:.&.1.5.1.U 3 : p p ",
"1.&.<.<.<.1.1.1.1.1.1.1.w.%.1.%.D.@XL.L.L.L. XL.G.L.[.G.[.[.#X[.[.OXoXOXoXoXL.L.L.@XL.z.1.<.5.y.<.<.4.4.>.4.U s l g g f f s f f l 1.>.1.$.&.<.1.&.&.&.&.$.:.&.&.,.R d s v k ",
"w.w.1.w.7.3.5.7.3.3.1.1.1.&.1.&.D.E.E.L.T.E.L.L.G.L.L.L.[.[.L.[.XXL.J.[.T.L.T.[.L.L.J.k.$.$.1.1.4.1.4.2.2.4.I a l k k k l k f l S 4.1.4.4.4.1.1.1.1.:.5.1.:.<.1.3.Y p s b b ",
"#.#.%.#.O.#.#.#.#.$.1.<.w.&.1.&.D.E.Y.L.L.E.L.L.`.L.[.[.[.[.[.[.OX[.XX].[.J.[.L.T.L.Y.z.$.$.1.1.1.1.3.y.4.4.J g l k k l l l h l k 2.4.4.4.4.4.5.1.1.1.r.5.5.4.5.4.Y s h c b ",
"n.c.b.b.b.b.b.b.b.v.l.5.5.$.&.$.D.E.L.L.G. XL.|.`.[.[.[.[.[.[.[.[.[.[.[.[.[.[.[.L.@XL.l.$.$.r.5.3.1.4.3.3.4.J 3 l f l f h f l f g ^ ^ ( / / / / ( / / / ~ / ~ / ^ L g s k c ",
"[.[.OXXXT.T.T.+X&X+X].5.5.o.:.$.D.T.L.L.`.L. XL.[.`.[. X X[.`.[.`.`.`.`.[.[.`.[.[.[.L.l.+.&.r.1.4.,.3.4.3.4.K p l h j l l l l l l k s s s s s s 4 s s s 3 4 3 3 p s g g j l ",
"[.[.[.[.[.[.[.[.[.J.Z.1.5.$.:.$.D.G. X X[.[.|.L.`.`.`.`.|.`.G.`.`.G.`._.`.].].[.L.[.`.k.$.&.5.5.:.,.,.7.,.5.K s C f s g g f l f g g l g l l H G H V C V N C C g l f g g j j ",
" X[.[.[.oX[.[.XXoX[.J.5.6.&.6.:.G. XG.G.L.G.[.G.G.`.G.`.`.G.`.|. X#X X[.[.[.[.[.[.OXOXl.&.$.1.1.1.&.,.5.3.7.K d g g s j l g g l g f j l j l s j j j j g g g g g g l C g j j ",
"[.[.oX[.[.J.J.[.oX].Y.5.3.2.3.>.B.R.E.E.T.E.@X@XE.E.E.E.T.E.@XT.L.@XoXT.T.XXT.T.Y.oXY.z.1.<.1.4.4.2.4.3.4.4.U j l j g s 3 a 3 s f 3 : 3 l g j j j v v l j g j g l k v g h h ",
"L.[.T.L.oXL.L.oX[.[.H.X.3.2.2.3.b.H.H.H.H.H.H.H.H.D.D.D.H.D.S.n.D.K.K.Y.L.Y.Y.K.K.T.Y.v.,.<.1.1.4.4.<.4.2.7.I h l k s J ^ ^ Q I D K T U I Q I s v l l j l g k l k k k k v j ",
"T.T.T.L.L.T.[.[.].OXZ.C j v j j k z k z z z z k z k z l k k z f _ 4.<.1.1.1.1.1.1.1.4.<.1.1.<.4.<.4.2.4.4.4.J s v k - 2.Y.T.D.J.L.L.J.oXY.Y.4.- v h s l g f l g k k l C c b ",
"T.L.L.L.T.@X[.[.].OXZ.N l j h c f l k z l h f l f f f f f f k 3 Q 4.<.1.<.1.1.<.1.1.4.1.4.1.,.4.e.<.<.4.2.e.I j v J 3 ,.R.*XJ.T.L.E.oX@XT.E.y.- n h f f f l l k k k v l c G ",
"'.[.'.'.'.`.|.`.G.I.n.N m s N N N t 5 g 4 N N t g t t t g 5 Z 1 X.:.&.5.r.r.:.5.:.:.6.5.;.:.5.;.:.1.:.5.1.1.F 4 N N ; $. X.X}._.'.'.`.'.J.`.:.2 N 5 t 4 5 5 t 4 d g M M m m ",
".X{.{.{.|.{.|.|.G.|.A.1 V r N N N N N N N N N N t N M N t t A r ! ;.@.:.5.:.;.:.;.6.;.;.5.;.;.;.:.:.5.:.$.,.A 1 N P & =.OX.X'.'.|.{.{..X[.OX6.& N g t t N t N N m d r r m m ",
"W.^.W.^.^.W.~.!.!.!.s.7 $ % 9 , > 6 , > > > > > > > > % > > < O ' *.{ *.*.*.*.*.*.*.8.*.8.8.8.8.*.*.-.-.{ | y $ , 9   ] /.(.!.^.^.^.^.~.^.}.*.. 6 $ 9 6 , % > , , 9 0 0 w w "
};
