/* XPM */
static char *a50621314a414ee1d2b310d7b750a482fVF8Xe8gTO8ctFXP[] = {
/* columns rows colors chars-per-pixel */
"86 86 195 2 ",
"   c #00000F",
".  c #00011B",
"X  c #000623",
"o  c #010C24",
"O  c #0A112B",
"+  c #161B2C",
"@  c #0E1630",
"#  c #0E1935",
"$  c #131C35",
"%  c #181C34",
"&  c #141D3A",
"*  c #16213B",
"=  c #1C253D",
"-  c #21263D",
";  c #262A3B",
":  c #242A3D",
">  c #29303F",
",  c #1D2543",
"<  c #1E2943",
"1  c #212743",
"2  c #242B44",
"3  c #292E45",
"4  c #242D4A",
"5  c #292E4A",
"6  c #2A3145",
"7  c #26314C",
"8  c #2B324D",
"9  c #303546",
"0  c #33374F",
"q  c #36394C",
"w  c #273251",
"e  c #2C3453",
"r  c #2E3854",
"t  c #2F3A5A",
"y  c #313754",
"u  c #323A54",
"i  c #333C5B",
"p  c #393F5E",
"a  c #353F62",
"s  c #393F62",
"d  c #36415D",
"f  c #3A445E",
"g  c #364264",
"h  c #3A4465",
"j  c #3D4866",
"k  c #374468",
"l  c #3C4569",
"z  c #3E496C",
"x  c #3E4C71",
"c  c #575559",
"v  c #62645E",
"b  c #414765",
"n  c #424A64",
"m  c #40456C",
"M  c #424B6C",
"N  c #485164",
"B  c #46516E",
"V  c #4A526D",
"C  c #565963",
"Z  c #575965",
"A  c #595A6A",
"S  c #414B71",
"D  c #465173",
"F  c #4A5475",
"G  c #4D5976",
"H  c #4B5679",
"J  c #4E5B7C",
"K  c #525776",
"L  c #545B74",
"P  c #5A5D75",
"I  c #515D7E",
"U  c #595F7D",
"Y  c #605E78",
"T  c #546076",
"R  c #5C6274",
"E  c #54617E",
"W  c #5B637E",
"Q  c #5E697F",
"!  c #6A6463",
"~  c #6B6A66",
"^  c #676668",
"/  c #6C6B6B",
"(  c #716769",
")  c #73726C",
"_  c #616273",
"`  c #676B74",
"'  c #65657F",
"]  c #6A657C",
"[  c #616B7D",
"{  c #6B6A7B",
"}  c #7D7771",
"|  c #7A7875",
" . c #7D7A7A",
".. c #827B7C",
"X. c #4E5D81",
"o. c #525E81",
"O. c #595E86",
"+. c #4F6082",
"@. c #556283",
"#. c #5A6585",
"$. c #556885",
"%. c #5B6986",
"&. c #566589",
"*. c #5A6789",
"=. c #566989",
"-. c #5C698A",
";. c #5C718E",
":. c #596890",
">. c #5E6C91",
",. c #626785",
"<. c #6A6680",
"1. c #616984",
"2. c #6A6B84",
"3. c #62668A",
"4. c #626B8B",
"5. c #706C87",
"6. c #63718E",
"7. c #69758C",
"8. c #6C798F",
"9. c #727589",
"0. c #75768B",
"q. c #777B8B",
"w. c #626E91",
"e. c #647393",
"r. c #697595",
"t. c #677996",
"y. c #6C7996",
"u. c #667499",
"i. c #6A779A",
"p. c #6D7B9B",
"a. c #737C96",
"s. c #7A7993",
"d. c #717D9C",
"f. c #787F9F",
"g. c #6D7CA2",
"h. c #727EA1",
"j. c #2C94AD",
"k. c #3097AE",
"l. c #349AB4",
"z. c #399AB1",
"x. c #3898B5",
"c. c #359ABA",
"v. c #3CA2BF",
"b. c #6F809C",
"n. c #75819E",
"m. c #78839C",
"M. c #4097AF",
"N. c #4C93AA",
"B. c #4D9AAC",
"V. c #5099AE",
"C. c #4D99B3",
"Z. c #5197B5",
"A. c #529AB4",
"S. c #7581A1",
"D. c #7581A2",
"F. c #7784A7",
"G. c #7A84A1",
"H. c #7E8BA1",
"J. c #7D8BAC",
"K. c #5EA8B9",
"L. c #63A0AB",
"P. c #61A7B5",
"I. c #44A9C3",
"U. c #858296",
"Y. c #828EA4",
"T. c #918EA2",
"R. c #8594AE",
"E. c #8C95A8",
"W. c #8C94AB",
"Q. c #9794A6",
"!. c #939AAD",
"~. c #8594B2",
"^. c #8996B4",
"/. c #8B99B4",
"(. c #8C9BBA",
"). c #929CB4",
"_. c #989FB6",
"`. c #919DBC",
"'. c #A098AA",
"]. c #B1B1BE",
"[. c #939FC0",
"{. c #A5AFC3",
"}. c #AAB3C8",
"|. c #B6BFD7",
" X c #B6C3DC",
".X c #BCC7DB",
"XX c #BEC9DB",
"oX c #BECAE1",
"OX c #C1C9D7",
"+X c #C7CBD8",
"@X c #C3CBDD",
"#X c #CBD1DD",
"$X c #C3CDE3",
"%X c #C9D2E3",
"&X c #D1DAE7",
/* pixels */
"} D.g.g.g.g.g.b.b.g.p.p.p.y.g.n.h.d.p.g.d.p.d.n.p.p.n.p.p.p.p.g.e.-.#.-.-.e.p.d.b.y.b.b.p.p.p.p.p.p.b.p.p.p.p.p.b.p.r.e.-.%.%.%.w.p.p.d.g.b.b.b.D.p.p.n.b.b.b.b.H.XX@XOXXX+X",
"} D.g.g.g.p.p.b.b.p.d.n.n.d.p.n.d.d.p.d.d.d.d.h.p.b.p.p.p.p.y.p.e.-.#.-.-.e.r.d.y.p.y.d.n.y.p.p.p.p.p.n.b.p.n.p.p.p.r.e.-.-.$.-.e.p.g.p.p.p.y.y.p.g.n.b.b.b.b.{ m.XX@XXX#X+X",
"} F.h.g.g.D.D.y.p.y.d.a.p.p.p.y.d.D.D.G.d.p.p.a.p.p.b.p.b.D.D.D.e.-.-.-.4.r.d.n.D.n.D.n.n.n.D.b.D.D.p.p.p.p.b.D.D.n.y.e.4.-.-.-.i.h.D.D.D.D.D.D.n.y.y.y.b.7.b.7.H.OX#X@X#X#X",
"| h.h.g.p.n.n.n.n.n.n.n.m.n.D.G.n.d.d.d.D.G.d.n.n.n.n.n.n.D.n.p.e.*.#.-.4.r.p.D.D.n.n.n.n.d.n.n.n.y.n.D.n.n.D.D.F.D.p.e.4.-.-.-.e.d.n.d.D.n.d.y.n.n.G.m.m.m.m.y.Y.XXoX@X#X#X",
"| g.h.g.g.H V G G G G G G K I I I U E I H J G J G F J T @.E E I J F F D J H @.@.I I E E @.E E G J G G G T I I I o.O.o.I H H F H J o.o.I E I I H G G H L G G T N %.{.{.].}.].",
"| g.h.p.h.6 + & + * % & $ & & = e h h i r 4 , & # # 2 d d d i d i h h g g a g a a g g k h d d d < # # * * < w t a a a l h g g g h i g i i i 1 & & $ $ % % + = o d R./.E.!.Q.",
" .g.D.p.D.u : 6 3 3 6 7 5 7 8 r p b M z g r w 4 < 7 t j j j j j h g g g a a h z k g g g d d g j u 7 7 7 w w d z z z l g g l g h h z z j j j e 4 4 5 8 8 7 : 6 = f H./.E.!.Q.",
" .g.D.p.d.q ; ; : 2 2 2 2 2 5 w i j j j d t 8 < < 4 r f j h h h h z z l z l l k z k z z j h j f r < = 2 7 r d z z h l S l l z z z j j b j j i 5 4 w 5 5 9 6 : * f /./.!._.'.",
"..h.h.p.d.q ; 3 : 3 : = = 1 : 2 y h h h y w 1 , * , 6 f d d g g g g h g k k a a a a a k g d g d 3 * & * , 2 y s s a s m s s s s a i i i i i & X . X @ + % 6 6 * f R./.!._.Q.",
"0.h.h.h.h.q - 3 : 2 8 f f f h j M F H F M M h p g d j D F F F D F G F H F F H F H H D H D D F V j f d d h M S F F F F F X.D S X.H X.H H G L P W W R R N + ; > * d J./.H.E.T.",
"..h.h.g.d.q 1 3 3 * L m.a.a.a.a.a.h.d.p.a.d.d.d.d.a.a.n.a.d.p.a.a.p.p.g.g.d.p.g.d.g.g.h.d.a.d.d.n.n.m.m.d.y.p.d.d.h.h.h.h.h.g.g.J.[.[.(.).).|.$X$XOX@X!.+ > 3 = d b.F.m.m.U.",
"..h.h.i.h.i 2 2 8 $ R d.a.d.d.d.d.d.d.d.h.a.i.p.p.a.y.p.d.d.d.p.h.h.d.d.d.h.h.g.d.g.h.i.p.p.d.y.y.r.p.y.y.d.a.d.d.h.d.p.h.h.i.i.F.(.(.(./.).oX@XOXOX#XT.  9 6 - d t.b.b.y.s.",
"} g.h.g.g.y 1 2 5 @ ,.G.a.h.G.G.D.h.D.D.D.D.D.D.D.D.n.D.D.D.n.D.h.D.D.D.D.D.D.D.h.h.D.D.D.G.D.n.G.D.D.S.G.G.D.D.G.G.h.h.h.F.h.f.J.~.^.^./.W.$X$X@XOX&X!.  9 6 * 6 b.b.8.m.q.",
" .h.h.g.h.y 1 4 e $ W f.a.d.d.h.d.p.p.d.d.p.d.h.p.d.a.p.p.y.p.p.p.p.p.p.p.p.p.p.h.h.d.h.h.D.D.d.n.p.n.n.d.d.d.D.h.h.h.d.h.h.h.h.J.^.[.~.^./.oX$X.X.X%XW.. y 9 , d b.b.b.m.s.",
"..h.h.h.g.i 4 2 5 & K d.d.a.d.d.d.p.p.p.p.g.p.p.p.p.d.h.D.h.D.D.h.D.n.D.g.D.D.D.i.i.r.i.t.t.u.e.e.e.t.r.e.r.y.p.a.i.y.i.i.i.i.h.J.[.`.`.(.). X.X$X%X%XW.O 5 5 , 7 b.b.8.a.s.",
"( w.u.>.w.l s i h i B #.#.#.#.O.&.$.&.&.&.*.&.#.&.$.-.-.>.;.-.-.-.>.-.-.>.-.-.-.w.w.w.-.-.*.*.*.-.-.%.-.*.-.4.4.w.w.r.w.w.w.w.3.;.t.t.p.r.r.R.^.(.R.(.a.4 s h g d ;.;.%.6.5.",
"^ :.w.:.*.m h s h h M W E I I @.I o.+.+.o.+.o.@.J +.$.-.-.-.-.-.-.-.-.-.-.-.-.-.-.-.*.$.+.E +.+.@.J @.I @.@.$.%.-.-.-.-.4.-.-.-.&.$.$.#.%.#.e.y.8.6.a.#.y l s g j ;.%.1.4.2.",
"_ *.3.*.&.S z h h h D I I I I H J J J J J J J J H J o.#.*.=.*.#.-.#.&.-.#.*.-.-.*.$.&.@.I J J H J J J J J X.&.#.%.%.#.*.%.%.%.$.-.-.-.-.-.-.y.D.D.n.d.3.j m s l z %.%.W ,.] ",
"/ *.3.:.-.m z h g h V I I I I J J J J J J H J H H J @.*.-.$.*.*.-.-.-.-.-.-.-.-.-.-.$.+.J H H J J J J J J @.#.-.%.#.%.$.#.$.$.$.$.$.=.-.%.%.t.n.D.a.n.%.h l a k z %.%.%.1.] ",
"{ -.w.-.w.l l l h h D @.I I I I J J J J J J J J J J @.-.-.-.-.-.-.-.-.-.-.-.-.-.-.-.$.$.E J J J J I J J J o.#.-.-.%.%.%.#.*.$.-.=.%.=.=.-.-.r.D.D.y.m.#.g l s k z -.-.%.,.{ ",
"_ O.&.&.&.l l l a l S o.I I I I J J J X.J @.@.+.@.@.$.-.-.*.*.*.$.&.@.@.$.$.&.$.&.@.@.I +.J J J J @.J J J +.$.-.-.%.-.-.4.;.w.e.;.;.e.;.e.4.6.e.r.6.y.@.i M h k x -.=.%.1.{ ",
"R X.o.X.X.l l l k l D o.I H I I J J J T +.$.$.%.*.%.*.-.-.&.#.$.o.J J J J @.H J J J J J I I J J J J H H J E $.-.-.-.4.e.p.p.p.p.p.p.i.u.p.p.4.#.%.4.4.I a l k l z =.%.%.1.' ",
"R H X.X.X.l l l l s D I I I I I I J G H I $.*.-.-.=.-.-.*.*.*.$.@.J J J J J J J J J J J I I J J J J J J J @.$.-.$.*.4.e.i.p.p.i.i.p.p.p.t.i.e.$.%.%.3.H g z a l z *.%.%.1.1.",
"_ J X.X.J z l l h l D o.o.I I I I T I H I #.#.-.%.-.&.-.#.*.#.-.@.J J J J J +.J J J J J J J J J J +.J J +.+.$.-.-.*.>.u.t.p.p.t.i.p.p.i.p.t.4.-.-.%.-.I h l a l M %.%.W %.Q ",
"P X.X.J X.l l l s s H X.O.H I I I I J J E #.%.-.%.#.-.-.-.$.*.*.@.J H J J J J J J J J J J J J J J J J J J @.&.-.#.-.w.e.p.p.p.i.p.t.p.p.p.t.-.*.*.&.O.X.s x a x x &.*.#.-.Q ",
"A I X.X.o.s l l l l H X.o.J H I I @.I I I @.#.#.%.-.-.-.-.*.*.-.I J H J J J J J J J J J I I I J @.J @.J o.@.&.*.*.#.w.t.p.g.p.p.t.p.t.p.p.p.-.@.&.O.:.X.s s a s z -.-.#.4.%.",
"Z J o.X.X.l l l k k S o.o.J I I @.%.Q #.#.$.$.%.%.-.&.-.-.*.$.-.+.J J J J J +.J J J J +.$.$.&.&.$.@.@.@.$.&.*.-.*.*.-.t.p.p.p.t.t.p.p.t.i.u.=.J o.O.:.X.x a s x z -.-.#.4.1.",
"Z O.O.o.o.l l l l l S o.o.J o.I #.-.-.-.-.-.*.*.#.&.%.-.*.*.-.*.@.J J J +.J E J J J @.@.=.-.-.-.-.*.-.-.-.#.-.-.*.*.4.t.t.p.p.i.t.b.p.t.p.t.$.J H I X.X.s s s s S &.=.#.-.[ ",
"C J O.X.X.s l l k k D o.o.I o.o.#.-.-.-.-.-.*.-.=.*.&.-.-.%.*.-.+.J J J J +.E J J J @.@.-.-.-.-.-.-.-.-.-.-.=.-.$.-.e.e.t.p.p.p.y.b.p.p.p.r.$.J H J J F a x s x x *.-.#.6.1.",
"c H o.X.X.l l l k s S o.o.o.I o.#.-.-.-.-.-.-.*.-.-.-.-.*.$.-.*.+.J J J J J J J J J @.@.-.-.-.-.-.-.-.&.&.-.*.-.*.-.>.e.i.g.p.p.p.b.t.p.p.r.%.G J I J D a l s s S *.-.#.%.[ ",
"c o.&.o.X.l l a s k S o.o.J o.o.#.-.-.-.-.#.-.*.$.-.*.-.-.*.-.*.+.J J J J J J J J J I @.-.-.-.-.-.*.#.=.*.-.-.:.*.*.-.e.u.t.t.t.y.6.t.6.e.6.$.J J X.J D s S l l S *.*.#.%.Q ",
"! o.&.&.O.x k l k l D o.I J J o.&.-.-.-.-.=.$.*.*.*.-.#.*.*.*.$.$.J J J J +.J J J J E &.$.-.-.-.&.%.*.*.&.-.*.*.-.-.>.-.>.e.e.e.;.;.%.;.%.=.E J J J J F s m s l S *.-.#.%.Q ",
"/ =.=.&.-.m l h h h D I I X.I X.&.-.-.-.&.-.-.*.-.-.-.-.*.*.*.-.E H J J J J J J J I E &.#.-.-.-.-.-.=.-.-.-.-.-.-.:.>.-.-.-.-.;.$.$.E E $.E J G J J J G s S s S S :.:.#.3.Q ",
"! >.-.:.>.l l l g j S I @.I I X.$.-.>.-.-.-.#.-.=.-.-.-.-.*.-.-.+.J J J J J J J H I @.#.#.-.-.-.-.-.*.-.-.-.:.-.>.-.-.-.-.-.-.$.E J J G G J J G J J J x a m s S S :.:.*.,.,.",
"! =.*.&.:.S l l g h D I I I I o.&.-.-.-.-.-.-.-.-.-.-.4.-.-.-.-.@.G H J J J J J H I @.#.-.-.-.-.-.-.-.-.-.>.*.:.-.-.>.-.-.$.-.$.E G G G G G J G J J J G a m s s S :.:.O.4.[ ",
"v %.*.*.&.S l g a h V I I I I @.&.>.>.-.-.-.-.-.-.-.-.-.4.-.-.*.+.J H J J E E J I I o.#.-.-.-.-.-.-.-.-.-.-.-.*.-.:.-.-.-.-.-.-.+.J J J J G J J J J G x s m m x S :.O.3.-.W ",
") 4.4.>.>.S l h h h D I E I I X.&.&.$.&.&.$.@.&.@.#.#.$.#.#.#.*.&.o.o.o.$.@.@.@.@.@.@.#.@.&.@.$.$.&.$.&.@.@.$.$.&.&.&.#.-.*.-.-.$.E E I E I E @.E $.J J k z s x m $.$.E %.W ",
"| r.i.t.i.S z h h h V I I I I I J o.o.I o.J J I J I I I I I o.o.#.%.-.#.$.=.#.#.-.#.#.I I I I J I J J @.I I J @.H J J &.$.*.-.-.-.$.$.$.$.$.$.$.T N.+.T l z s l l o.o.I E R ",
"} i.d.u.i.S z j h h V J I I J X.X.X.J X.X.J J J J I I I I I I I #.*.-.-.-.#.*.*.-.3.#.I I I I J J I J I J I J J J J @.$.%.-.-.-.-.%.$.$.#.#.%.-.E $.$.G l l l l l o.I I U P ",
"} d.h.u.i.M j h g g V I I J I E J X.J X.X.J J I I I I I I I I I #.-.-.-.%.-.%.-.-.-.#.I I I I I I J X.J J J I I J J @.$.-.-.-.-.*.%.#.-.%.%.%.-.$.$.;.G g l s l l X.J G I L ",
"..a.d.i.g.m m j g h V I E I J +.J X.X.J X.J J J I I I J K I I I #.4.4.-.%.-.-.3.-.-.*.I I I I I J J I J J J J J J J o.#.*.-.-.-.-.-.%.%.-.%.%.$.%.%.-.I a S l l x X.J H K L ",
"} i.g.g.u.m b h i h V @.I G J T J J J J J J J J J I J J I I I I @.-.-.-.-.-.3.-.4.4.&.I J I I H I E J J J J J J J J I &.-.-.-.-.-.-.-.-.-.-.-.%.-.%.3.I i b p h l o.E I I L ",
") w.r.u.>.p 5 y r e n E E G I J J X.X.X.X.J J J I I J I I J I I I #.@.o.#.#.-.3.3.-.@.I I @.I I J I J J J J J H J J E $.=.#.-.%.-.#.*.*.-.-.#.%.%.$.4.H 4 y u t t E I J U L ",
"~ &.w.&.&.y 1 4 5 < h L U F J J J o.J o.o.I I o.I I I I J I I J I I I I o.o.#.-.-.-.#.I I I I I I I I I J J J I H I @.$.#.-.-.&.-.*.-.-.-.%.-.#.*.$.w.V # 5 6 < 4 I I G I I ",
"/ O.:.:.&.y = 1 5 , g I @.H H J J o.J o.I I I I I I I I I I I I I H H J I @.#.-.-.3.#.o.I o.I I I I I I I I H I H I o.#.-.-.-.-.-.-.-.3.-.3.-.-.-.#.w.M * 3 2 2 8 J I G I I ",
"~ O.:.3.&.y 1 3 5 , h I I H I J J J o.X.X.I I J O.I I J H J J I I I I J I o.#.-.4.-.#.E I I J I J I J I I I I I I I @.#.*.-.-.4.-.-.-.-.-.-.-.3.-.*.e.N 2 6 = 2 u J I I I L ",
"/ &.>.:.#.0 - 2 5 , j E E G J J J o.X.J I I I I I I I I I I J J I I I J o.#.#.#.-.-.#.o.I I I I I I I I I I I G I I @.@.#.-.-.-.*.*.%.-.-.-.-.*.-.*.w.M < > : 2 e J I K P P ",
"( &.>.3.*.y - 2 3 1 f E E H J J J I J o.I J I J I I J X.K J X.K I I I I o.#.@.#.%.-.@.I I I I I I I I I I H I I I I I o.#.#.#.#.#.O.#.#.O.#.#.O.*.&.#.N = ; > < 3 @.@.I O.Y ",
"/ *.>.:.*.y - 2 6 , h E E H J J J o.o.o.I I J I I I J I J I J J J o.o.J o.I I @.@.E E J J I J I J I I J J J I J I J T I @.@.E o.O.o.o.O.o.o.O.I O.O.O.n = > > < 7 $.#.#.%.] ",
"/ :.>.>.&.y = 2 5 2 h L E G J J J J o.J o.J I I I I I I I J I I J X.J o.J I I J H J J J J I I I I J J J J J J J J J J I J J I I J X.J J I I J H J J K b = 3 3 < 8 -.-.,.3.] ",
"( :.>.*.*.y = 1 7 , h U E H G I J o.X.I J J J I I J J I I I I J X.X.J J I I I J I I J J I I I J J J J J J J J J J J J J I I I I J J I J J I I J I I I n = = 2 < 7 -.-.3.3.] ",
"` :.>.:.*.u 1 5 w 1 d I I J T I J I o.X.o.o.X.J K I I I I o.o.o.o.I o.J o.I I I I I I I I J I J J J J J J J J J H J J J J I X.I X.o.o.I I I I J U I I j = < 2 , 7 -.-.,.2.] ",
"/ O.:.&.O.i 5 4 2 < f J E H J J J o.o.o.o.I X.I I I I o.I o.o.I J J X.I X.J J I I I I I J J I I E @.o.@.o.@.o.o.@.E o.X.J J J X.o.J o.I I J J I J L E n 7 e w 4 t $.-.%.3.{ ",
"Z O.&.&.o.g s p d d B T T H J J J X.J X.X.X.J J J X.o.H o.o.o.o.o.J X.H X.J J I I J I H J J J J @.$.*.$.$.&.$.#.$.@.&.@.o.J J J J X.J J I I I H J H E V i i y i k $.%.1.,.<.",
"C O.O.X.X.l h j g d B J T J T @.X.J X.J J X.X.X.X.X.I o.J O.X.I J X.X.X.J J J I I I I J J J J J @.-.-.-.#.$.*.*.*.*.$.o.J J J J J X.I J I J J I I J L V h h p a z $.$.#.,.] ",
"C o.o.X.X.l z j h h V J E J J +.J J J X.X.J J X.J J J o.o.H o.X.X.X.J X.+.J J J I I I J J @.J I $.-.-.-.*.*.*.-.-.-.$.@.X.X.J J J o.o.I J L J T T I G F h b h z n #.#.#.,.1.",
"Z X.X.X.J z z h h f B J I J I J J J I J X.J X.J X.H X.I J X.X.X.J X.J J X.J J J I I J J J J J J @.-.-.-.-.-.-.-.-.-.#.@.J J H X.J X.o.I I H I G I I H H s s s s S $.%.#.1.<.",
"C X.X.X.X.l h z g g B T I G G I I J J o.J +.X.J X.o.I o.O.X.J H H J J J H J J J I J I X.J J J J @.$.-.-.-.-.-.-.-.-.$.O.X.J J X.o.o.o.I I I J L U I H S s x s x x -.%.%.1.] ",
"P o.&.@.X.z l h h f F @.#.E E @.I J J J X.+.X.J X.I o.J J o.X.J @.O.&.@.@.J X.X.J J I X.+.@.@.$.$.#.&.-.-.-.-.-.-.-.$.$.@.@.@.&.o.o.I I I I I I I J X.S x s a x S -.$.W %.<.",
"] #.-.:.&.x z h g g G %.4.*.%.#.E J J J J I J @.J o.X.J J o.o.o.&.-.-.*.=.@.@.J J H o.&.*.-.-.-.-.*.-.-.=.-.-.-.-.-.*.-.*.*.-.*.O.o.J J I I I I J I X.X.a x a x x =.-.%.%.] ",
"{ *.-.>.&.S z l g h H 3.4.-.-.#.I H J J X.J J o.o.o.o.H o.o.o.o.-.-.-.*.&.@.@.J J J @.$.*.-.-.-.-.*.*.*.#.-.-.#.*.$.*.-.-.-.-.-.&.I I I J E E J T T H H s x s k x -.%.W 1.] ",
"{ -.;.-.&.S l l g h F *.-.%.#.#.@.I J J I I I o.H o.X.o.J o.J I $.-.-.*.@.@.@.J I J @.$.*.-.-.-.*.$.*.*.-.-.=.-.*.-.#.*.*.&.-.>.&.o.I I +.E J J J I H H a l s x x $.%.,.1.{ ",
"{ $.;.-.-.z l l g l J -.4.%.#.$.o.H H I J O.I o.o.H K X.J o.X.I #.*.-.#.&.$.J J J J @.@.#.-.-.*.*.$.*.*.-.&.-.*.*.*.*.-.#.*.-.-.$.o.I I E E J J E J H H a z l k x =.%.#.%.] ",
"2.-.>.-.>.l l l k g F -.-.&.#.#.I I H J I I I o.o.o.X.X.o.o.I I #.-.-.#.#.@.@.@.I I o.&.$.-.*.*.&.*.#.$.%.*.&.*.#.$.*.*.*.-.-.-.$.I I I @.+.E J J J J H k l l l S $.#.#.%.] ",
"9.6.e.e.u.z z k a k D *.&.I E @.I I I I K X.X.X.K X.o.X.X.X.X.o.#.-.-.-.#.*.&.o.#.$.&.I o.@.X.J @.@.+.@.@.@.I @.@.@.@.$.*.-.4.-.-.#.#.#.O.#.#.@.-.$.I H j l s l x @.@.I O.Y ",
"q.b.t.p.i.z z l h h S I I H J J I H I H o.X.o.o.X.o.X.X.K X.o.X.#.-.-.-.-.*.-.-.-.3.#.I J J J J J J J J J J J J J J J $.*.-.-.w.4.-.-.-.%.-.-.*.-.-.@.J h l s l a X.I H I A ",
"a.b.p.g.p.b j h h j M I I H I I I J I I K X.X.X.o.X.X.K K o.K X.&.-.4.-.3.-.3.-.w.4.#.J J J H J J J J J J J J H H J o.$.*.3.4.4.-.-.-.3.-.-.-.-.-.-.#.I h z s l z I J H I L ",
"0.t.b.p.i.z h h d h D U I K I I I I I J X.o.K X.X.K o.X.X.X.X.X.O.w.-.-.-.-.-.3.4.-.#.o.J o.J J J J J J J H J J J J @.#.-.-.-.-.-.-.%.-.-.*.*.-.-.*.-.I j b h b j I I I E T ",
"9.u.g.t.i.S M b h b F I T J J +.o.I X.X.K O.X.o.o.K X.X.X.o.X.o.@.*.*.&.*.#.&.%.-.-.O.I I J J J J J J J J J J J H J @.#.-.-.-.-.-.*.*.-.%.-.-.-.-.&.-.H p s i s h I I G I K ",
"9.>.p.e.>.i y y e y m I E J I +.o.o.o.o.o.X.K O.o.O.o.o.o.X.X.o.@.&.&.&.O.@.O.&.&.$.o.J o.X.X.X.+.J +.X.+.J J J I I @.#.*.#.-.-.-.-.-.-.-.-.-.-.-.-.-.F e u e y p H I G I L ",
"2.-.w.>.*.a 4 < , , h W @.H J I X.o.X.o.X.X.K X.X.X.X.X.X.X.K X.X.X.o.X.X.o.o.o.I o.o.o.I X.X.X.X.J J +.J J J I I I o.#.#.-.-.-.#.-.#.-.*.-.*.*.*.&.:.V , 8 5 5 e o.o.I U G ",
"2.=.&.-.O.t , 4 5 1 f @.W H J J J X.X.o.X.X.X.X.K J o.K X.H X.X.J X.J X.X.J J I I J J o.J J J J J X.J +.J I J J H I o.$.*.#.-.-.#.-.-.*.-.*.*.*.#.#.w.V # 3 4 1 5 o.o.H I A ",
"{ &.=.*.*.t , 4 5 , b U E J J E o.X.X.O.o.o.@.J O.X.I I I J X.X.J J X.o.X.o.I o.o.I J @.@.o.+.X.X.J X.+.o.I @.I I I @.%.-.-.4.-.-.-.-.;.-.-.-.-.;.-.r.V # 3 3 1 w X.X.G T A ",
"{ =.-.=.&.u , 5 5 , b G E T E J K X.X.X.o.X.J J J J I I I I I I I I J I I o.I I J I @.@.I I @.E +.@.I @.o.I I I I W #.%.3.4.e.4.4.w.w.4.3.,.3.%.3.%.r.V % 3 5 4 r H J G T T ",
"{ $.;.=.$.u < 7 3 = f L G D F J o.X.X.J J J J J J I H H J H H I H I J J H I J H F F D F F F D F F F D F D D D D D D D G H I I H H J I G I U O.I O.P U b 2 2 2 4 e o.@.T @.T ",
"{ $.;.-.$.y < 7 2 2 8 f f k f g s s l l g h g g a a d h h h h h h j h g h h s h h k k h z j z j h h z h j j b j b b b b z b b z b b z b b p y 1 1 2 2 2 3 2 1 4 w *.-.Q %.Q ",
"{ $.;.=.$.r < 7 < 2 9 f f g g g l l l k k h k g g g g h h h h h j j k k f k k k h k h h h j h h j k k g j h j h j j j h b h l z l l b s b s e 1 1 2 2 3 5 3 1 4 r *.*.#.%.[ ",
"{ =.e.=.=.r w 4 2 2 d j f j j j b z z l l z j j j j j j j j j j k j j j j j j j j j j j j z j j j z z j j j h h h j b h z l l l l b h j b p u 3 3 5 6 3 5 2 < w r *.-.E %.{ ",
"` =.;.-.$.w < < = = r f f d j j l k a l k k k k k j g g g k k g g g j k j k k f g g g g h h h h g j k h k h k h h h h h h l a l l h h s s p 8 = - - 2 - 1 1 = < 7 %.-.E %.[ ",
"{ =.e.:.&.4 4 < < < r j j j k j l a k k k g k z z k k k g g g g g g g g k g g g j j k j h h h z h k j k h j h z h j h z l h l l l z l h h i 8 = = = = - - , , < w -.-.Q %.[ ",
"q.i.i.i.p.O.I I K G F V V V D F X.O.o.o.I I I D D D H I o.@.o.@.o.o.@.O.o.@.@.@.J H H H J H H H F D F D F F H I J K I H J J H H H J J K I W K L L L L P L I G O.I e.e.6.y.7.",
"..f.h.h.h.3.<.,.,.,.' I I I W #.*.3.3.*.#.%.U O.U U U #.,.3.,.3.3.-.-.-.3.-.3.3.3.3.4.4.3.w.3.3.#.U U O.U U ,.3.4.4.4.4.3.2.4.3.4.4.4.4.4.3.%.W W 1.1.3.,.3.*.O.e.D.n.n.m.m.",
"..d.h.h.h.5.3.3.2.4.U P K I E E 1.4.3.3.%.E E T I U W %.,.,.3.3.3.3.-.3.-.3.3.3.3.3.4.3.4.-.:.w.O.K P I I U %.3.4.,.4.3.*.,.,.%.,.%.%.4.,.,.,.,.1.1.,.3.3.3.3.*.r.p.n.b.G.a.",
"..d.h.h.h.3.3.3.4.-.#.I I I E J @.%.-.%.$.T J J G G E %.-.-.-.-.4.:.>.*.-.-.:.3.-.4.4.>.:.:.:.>.&.P I I U @.%.>.w.-.-.*.-.,.,.%.%.-.%.3.%.%.%.%.-.,.3.*.3.w.:.&.u.g.g.n.D.a.",
"..y.a.h.i.O.O.O.#.@.I D F F H J T @.E T J T G G V H T @.@.@.@.@.&.O.&.O.&.o.&.O.&.o.o.o.X.+.X.o.o.K K K K H @.@.@.J o.@.@.U U U E E E E I #.I #.@.I E O.O.&.O.O.:.u.u.e.d.a.",
"V.C.I.I.I.x.M.x.x.l.k.j.j.j.j.j.j.v.k.v.k.j.k.j.j.j.k.l.l.l.l.l.l.l.l.c.c.c.c.c.c.c.c.c.c.c.c.x.x.N.N.N.N.z.M.z.l.l.l.C.C.B.B.B.V.B.B.B.B.V.V.V.V.B.B.V.V.A.Z.V.A.K.K.P.P.L."
};
