/* XPM */
static char *ec014ca2467c4432e7371ec1228d07ceBJcMlmvz4xXPBfyE[] = {
/* columns rows colors chars-per-pixel */
"86 86 215 2 ",
"   c #1E040B",
".  c #1F0114",
"X  c #1F191E",
"o  c #230206",
"O  c #240D06",
"+  c #260F09",
"@  c #2B130C",
"#  c #200215",
"$  c #2A1717",
"%  c #2C171E",
"&  c #261A1F",
"*  c #2C1A1C",
"=  c #371915",
"-  c #351A1A",
";  c #3B1C1C",
":  c #29201D",
">  c #3C211D",
",  c #251C24",
"<  c #2C1C24",
"1  c #261E29",
"2  c #2B1D2A",
"3  c #321D24",
"4  c #3F1F25",
"5  c #321E2A",
"6  c #2D2225",
"7  c #26212C",
"8  c #2C222C",
"9  c #2E282A",
"0  c #332425",
"q  c #3B2325",
"w  c #342A26",
"e  c #3C2926",
"r  c #34232B",
"t  c #3C242C",
"y  c #352A2D",
"u  c #3C292D",
"i  c #3B322F",
"p  c #342533",
"a  c #3C2632",
"s  c #372934",
"d  c #3D2A33",
"f  c #37293B",
"g  c #3D2A39",
"h  c #3C3034",
"j  c #3D3138",
"k  c #461817",
"l  c #461D1B",
"z  c #501F1E",
"x  c #44211E",
"c  c #4C221C",
"v  c #451E22",
"b  c #511F21",
"n  c #442325",
"m  c #4B2425",
"M  c #432B25",
"N  c #4C2B27",
"B  c #43252C",
"V  c #4B262B",
"C  c #442A2D",
"Z  c #4B2A2D",
"A  c #542223",
"S  c #5A2626",
"D  c #532A26",
"F  c #53272C",
"G  c #5D2629",
"H  c #532B2C",
"J  c #5B2C2C",
"K  c #43312D",
"L  c #4B322F",
"P  c #55322E",
"I  c #5B312E",
"U  c #432632",
"Y  c #482731",
"T  c #432B33",
"R  c #4B2C33",
"E  c #442739",
"W  c #432B39",
"Q  c #492C3B",
"!  c #542D33",
"~  c #502E35",
"^  c #5B2D33",
"/  c #512F39",
"(  c #5C2D3A",
")  c #463135",
"_  c #4D3234",
"`  c #453138",
"'  c #4C333A",
"]  c #533234",
"[  c #5B3334",
"{  c #5A3536",
"}  c #573937",
"|  c #5E3933",
" . c #5E3A36",
".. c #553639",
"X. c #54343A",
"o. c #5A353A",
"O. c #5E3639",
"+. c #5C353A",
"@. c #563939",
"#. c #5D3939",
"$. c #5B3A3C",
"%. c #5E3D3C",
"&. c #682727",
"*. c #632D2C",
"=. c #6A2C2C",
"-. c #702D2E",
";. c #693527",
":. c #64332E",
">. c #6B332D",
",. c #653B2C",
"<. c #6B3C2D",
"1. c #74362D",
"2. c #7B352D",
"3. c #743A2E",
"4. c #7A392E",
"5. c #632E32",
"6. c #6A2E36",
"7. c #672E38",
"8. c #6B2C3C",
"9. c #712E33",
"0. c #643434",
"q. c #6A3534",
"w. c #643935",
"e. c #6C3A35",
"r. c #63353A",
"t. c #6B353A",
"y. c #623A39",
"u. c #643A3B",
"i. c #6C3C3B",
"p. c #733534",
"a. c #7B3534",
"s. c #743C35",
"d. c #7B3D35",
"f. c #73353A",
"g. c #7C363A",
"h. c #733D3B",
"j. c #7B3E3B",
"k. c #5B423D",
"l. c #5D453E",
"z. c #66422C",
"x. c #69452F",
"c. c #70402E",
"v. c #6D4235",
"b. c #64413D",
"n. c #6D413C",
"m. c #744135",
"M. c #7C4236",
"N. c #73413C",
"B. c #7C423B",
"V. c #75493A",
"C. c #7B4A3F",
"Z. c #573741",
"A. c #5A3641",
"S. c #553B42",
"D. c #5C3B42",
"F. c #5E3F48",
"G. c #702E41",
"H. c #673543",
"J. c #643C42",
"K. c #6C3D42",
"L. c #6C3846",
"P. c #723543",
"I. c #733E42",
"U. c #7B3E43",
"Y. c #703C4A",
"T. c #5E4241",
"R. c #644243",
"E. c #6C4243",
"W. c #6C4947",
"Q. c #644248",
"!. c #6D444A",
"~. c #6C484E",
"^. c #734342",
"/. c #7C4443",
"(. c #744846",
"). c #7B4944",
"_. c #73444A",
"`. c #7C434A",
"'. c #73494A",
"]. c #7B4A4A",
"[. c #754B50",
"{. c #883A25",
"}. c #893A2F",
"|. c #833E34",
" X c #8B3E34",
".X c #833E3A",
"XX c #8A3D3B",
"oX c #923E34",
"OX c #94422D",
"+X c #834136",
"@X c #8C4335",
"#X c #82423B",
"$X c #8B443A",
"%X c #874A3F",
"&X c #8D493D",
"*X c #924333",
"=X c #984435",
"-X c #904835",
";X c #92443B",
":X c #9B443C",
">X c #92493A",
",X c #833F42",
"<X c #883F40",
"1X c #824442",
"2X c #8C4443",
"3X c #834843",
"4X c #8B4A43",
"5X c #84454B",
"6X c #8D4649",
"7X c #834B4C",
"8X c #8C4A4B",
"9X c #944543",
"0X c #9A4342",
"qX c #914942",
"wX c #92464B",
/* pixels */
". Q p g f f u d d d g W T ` T ` R T T C Q T W W T g g g g g g d d a d d T W E Q W W s 8 2 1 2 2 s p a a a a g E d T T T T T T T U d d d d d g a g g s 8 , 1 1 7 p p E a U E ",
"# Q a W d d a d d d T T T T T T T C Z T T R T T g T g d d d d d d u a g W T g Z.W W s 8 1 < 2 8 f s g g U f a a g a d U d ` ) T d d d y a f a a a g g p 1 1 7 7 r f E E E a ",
"o Q d T C C C C u U T Y R T T T R T T T R T R R T T C C U U B a u U u a Y U E Y ) C t 0 < % < 0 u a E U V U T B B u U U T T T d d C B u u B U U U T a 5 < < 6 6 r a U E U E ",
"o R u u t t t u t B C T T R T T T T R T T R T T T U C C B t t u t t t B B U Y Y U T d y < < < t U a t 4 t t u u u t u U ) ) T T U a u t t B t t t t t 5 8 6 6 6 t t U B U v ",
"o D n V x c x c n V Z F Z Z R V Y T W ) R Z N N F m N m V n n n n n V n m V D D N n > @ O O O @ ; x l n n n B n B B n C ' T T T U C B V m n V V n n q = + + @ @ = x m N b v ",
"c b.$.u.| | k.y.y.y.+.+.+.+.A.~ T B B U R X.+.{ y.+.+.+. . .@.X.} X.X.X.] +.b.u.k.b.l.l.l.l.l.l.b.b.b.E.R.y.X.X.X.X.X.Q U B U T R ' ~ ~ ! ] { +.o.$.k.T.l.k.} k. .%.y.y.r.r.",
"+X>X9X9X:X:X0X0X4X#XV.N.K.E.E.+.U u u d Z $.v.N.s.N.B.C.B.1X1X,XU.h.i.E.s.3X;X0X9X9X2X2X#X$X$X2X>X>X<XXX2X<XU.U.E.E.D.] t t U T Q X.y.r.w.t.^././.B..X.X$X2X9X9X&X&X%X%X%X3X",
"@X&X9X9X0X:X0X0X4X2XN.N.J.K.E.+.B B a U Z $.n.n.e.N.B.B.1X3X2X,XI.I.E.i.j.3XqX0X9X9X9X9X2X2X9X4X9X9X0X0X2X<XU.U.!.!.J.R B t u Q _ X.r.+.w.K.)./.3X1X2X2X9X4X0X9XqXqX4X4X%X4X",
"{.OX;X$XOXOX*X-X&X+Xd.p.e.i.K.[ t B a d N o.m.e.1.4.d.+XM.+XB.m.s.e.s.e.4.|.@X-X@X@X-X*X*X@X@XOX@XOXOX*X$X+Xi.i.E.i.%.~ t B t Y ~ +.0.0.=.p..X#XM.+X+X+X@X@X*XoX*X*XoXOXoX=X",
"{.=XXX;X*XOX@X*X@X@Xd.s.e.h.E.^ B t E g Z +.d.s.4.4.4.d.M.M.V.m.e.s.h.e.4.|.-X-X*X*X@X;X-X*X@X*X*X*X@X=X%X+XN.N.W.W.J.H B t B W +.A.q.0.>.p.j..X+X+X+X+X-X@XOXoX*X*XoX=XOX*X",
"M.&X#X$X X@X@X$X#X#XN.h.i.h.!.^ v t u U Z +.N.v.3.s.s.m.m.m.N.s.i.i.i.i.s.V.-X&X-X-X*X;X@X@XOX@X@X*X@X@X@X|.|..X.X1Xn.m M q d u 0.r.s.f.p.s.d.B.M.M.+X$X&X$X$X$X$XXX*X X@XXX",
"4.M.|.|. X X|.|.M.+Xj.h.i.I.!.+.B B d d Z X.e.s.>.e.3.p.e.s.s.f.i.q.y.r.p.M.+X@X X X X X@XOX+XOX@XOX@X@X X@X#X2X2X1X(.m n q d y K.K.j.B.M.d.h.N.M.M.M.+X$X+X@XXX X X X|.|. X",
"e.i.N.N.d.s.j.f.h.i.n.K.K._.!.+.B B a d Z X.n.u.w.w.u.w.w.w.t.w.r.r. .r.y.i.+XB.|.M.d.+X+X+X+X+XM.M.+XM.|.@X;X;X0X0XC.c M > h w P.,X1X2XB.B.n.v.m.h.s.j..X/.U.j.j.h.s.f.j.h.",
"i.w.h.N.s.s.s.j.h.j.E.i.E._._.+.Y B u U C X.u.i.w.w.b.w.t.u.w.w.+.r.r.r.e.h.B.B.+X#X+X+X+X+X+X+X+X+X+X+X@X$X;X;X0X:X).c C q i w I.5X2X#X#XB.N.N.m.v.j.U.U.1X1XB.U.d.s.h.h.i.",
"b.n.^.^.s.d.d.N.N.N.^.N.n.^.E.+.B n U u Z } J.u.w.w.w.e.e.e.t.q.0.w.w.y.w.N.B.C.B.B.#XB.M.#X#XC.B.B.M.M.$X$X&X&X4X2X(.c C q h 9 I.U.#XB.B.B.h.h.N.h.h.j.)./.`./.^.^.i.i.i.i.",
"i.u.^.i.s.d.N.d.B.h.n.i.i.K.K.^ B B u a Z X.K.t.w.w.i.v.i.h.h.i.w.e.u.u.i.n.N.B.B.N.B.M.M.M.M.M.B.M.B.V.#X|..X#XXX.XN.m C M y w f.I.B.M.m.B.N.N.B.N.N.j.d.N./.N.N.j.h.h.h.n.",
"u.i.e.i.s.d.B.B.B.d.e.q.w.e.u.[ B B u d Z X.J.J.0.q.s.d.d.j.d.s.e.e.e.v.v.e.e.i.s.i.h.h.h.N.N.N.V.N.N.N.V.d.p.s.i.i.J.V B B a f t.P.v.v.3.m.B.j.B.B.N.h.s.e.i.i.i.n.n.n.h.^.",
"w.w.t.i.s.d.B.B.N.d.<.,.0.w.r.! n B d u B X.J.u.0.i.h.N.B././.j.N.m.n.n.b.v.q.q.e.e.e.i.h.h.h.N.N.N.N.N.m.p.;.>.0.0.+.V B t a u 7.t.,.<.1.s.j.B.B.B.N.i.q.>.e.e.i.i.N.N.n.I.",
"w.w.r.i.s.h././.B.h.q.q.0.0.+.! U u d d T ' r.r.0.e.N.N./.B./.j.j.h.n.i.i.u.w.0.w.r.u.i.i.i.I.h.^.K.K.E.i.r.*.5.[ [ ] V t t T a +.J.q.w.>.s.B.B.N.d.N.s.0.0.w.w.u.i.K.E.K.E.",
"u.q.i.i.h.B.3X3X3XN.e.q.w.w.+.! U B d u T ' J.J.0.i.N.B./.3X1X1XB.^.N.^.E.i.r.r.u.t.i.i.N.E.I.^.^.^.E.^.h.i.:.*.| [ ] ! B B g a r.u.e.e.s.N./././.).V.N.0.q.w.i.i.E._._._._.",
"u.u.i.n.j./././.]./.t.t.+.r.A./ U u d f T X.R.D.y.u.N.)./.1X5XU.I.I.I._._.J.H.A.J.J.K.K.E.E.!.!.!.!.E.!.W.u.^ r.+.+.X.Y a a g u A.D.K.K.e.^.`.`.`.).(.v.y.y.y.u.K.K.~.~.Y.~.",
"D D ^ H *.5.q.f.q.q.^ ^ ! ^ / Y t r p p u T X.] H [ :.:.e.q.p.q.t.7.r.r.r.^ ! ( ] +.X.+.[ +.+.+.+.[ +.#.r.^ J ^ ^ ^ Q B 4 5 t u R X.[ ^ 5.:.0.0.w.0.0.I P H ^ [ ( o.7.A.A.$.",
"* - 9 9 w e K K R C n n U Y d t 2 2 8 8 2 s U U B B B Z R C K T T R R Y R Y U t B U U U B U B n B B u U W R Y R R W a a 5 3 2 5 a U U U u u s i u u U B B Y U U U U U U V U ",
"$ $ 9 6 0 w i K Z C B B B Y B r 2 2 1 8 2 r d d t B Z Z C C C C C R R Y Y Y B U B u B U Y B B B t B B B B B Y Y Y Y E 4 5 3 5 p a a B B u u y f u t B B B V B U B t E v B B ",
"- 3 p p t g T ) T T C u u d d r < , 2 2 8 s g f a d g g W W R W R W T T U T d u d d d d d d d d u d d d u g R W W T W a 3 5 5 r s d d f d U a E g g g g g d d d a a u a a a ",
"< * p p t U Q T T T d T d d d r 2 < 2 2 2 p g f d d g g T W W R W R T C T d U u g d a t a s u u d d u u u U Q Q T W a t 5 5 5 5 r t s a a a a a p a f g s s a u s d d d d u ",
"< < p f a E R R V Z N L N N c x k k k k l b V N F V D F S F S J S S S S D D V V U B U B t r t g Z R C Z V F ^ ! ! F ! V n > > > c b z b A b b b b b v V n V B V B C Z Z Z Z ",
"3 2 f f T Q X./ Z ] } }  . .b.n.^.(.`._.'.E.E.E.E.Q.E.E.E.E.^.^./.^.^.).(.E.u.u.F.Z.Q W s t t T X.o.$.$.#.J.J.K.H.J.r.+.Z P } b.^.`.(.].].].].].[.[.[.~.u.$.J.D.J.%.#.$.$.#.",
"4 5 g g R / ^ ^ J 0.h.^.B.m.4.+X@X$X-X*X@X X#XB.B.#X#X#X|.+X X+X$X*X;X>X$X|.p.p.i.u.S.Q t t t ' P.U.(.N.B./.1X5X1X1XB.h.z.,.z.z.}. X@X*X=XoXoXoXoX$X$Xa.3.3.d.s.i.N.(.^.^.(.",
"t t g g Y ~ 5.^ G 0.h.N.B.m.M.+X>X>X=X>X;X@X#X#X%X#X$X#X$X#X+X$X;X;X>X>X&X+Xs.d.E.J.$.Q a t t ' h.I.(.V.B./.1X1X,X1X/.d.<.,.z.x. X*X-X>X:X:X>X=X9X>X&X#Xa.4.s.s.h.j.V.^.^.^.",
"q q g g V ! ^ ^ J 0.e.i.m.m.s.M.@X@X*XoX$X$XB.B.B.B.#X#X+X|.|.@X@X$X>X$X@X X1.1.f.f.+.B u t u ) u.K.v.v.s.d.#X.Xj.j.d.3.;.;.;.c.|.@X&X&X;X;X;X;X@X>X$X|.4.1.3.s.p.m.N.s.h.N.",
"0 q g U Y ^ 7.^ J 7.w.i.e.s.3.M.@X$X*X*X#X+Xh.h.N.d.B.#X#X|.|.|.@X$X@X$X@X+X3.3.f.h.D.n U t u ) u.K.i.w.p.h.#X.X.X.Xd.d.3.<.<.c.|.+X$X$X;X$X-X;X@X@X+X+Xd.a.s.p.s.s.s.s.h.s.",
"q q U d Y ! 0.r.J 0.y.w.v.y.e.m.$X#X$X$X/.B.u.i.i.i.h.B.B.B.j.#X#X#X$X#X@X+X3.M.g.j.J.n T t y ) @.#.e.y.q.s.#X#X.XB.M.M.d.d.d.d.B.B.B.B.#X1X$XXX$X$XB.M.d.M.d.d.h.d.f.j.s.s.",
"q q d T F ^ r.6.0.[ | 0.w.I ;.e.#X#X.X|./.s.y.+.w.i.d.N.#X#XB.#X.X.X+X#X#X+XM.M..X.XR.> C q y ) X.} ,.I *.h..X#X.XB.M.V.M.B.j.d.d.B.d.N.j.#X|..XB.+X#XM.M.B.B.d.h.d.s.s.f.j.",
"q q g U ! X.u.r.[ J [ [ I I J e.B.B.|.j.h.q.[ P 0.0.s.B./.B.B.j.B.d.|.d.#X+XM.M.j.j.Q.v T B t T _ ..I I *.e.B.B./.B.B.#XM.#X#XM.m.m.s.m.d.B.B.B.#XM.M.B.j.#X#XB.B.j.e.s.h.s.",
"q q a T Y +.H.u.{ w.[ [ I H J e.B.3X#X#XB.e.| [ I w.N.B.3X#XB.B.#Xj.#X#X#X+XM.+X1XU.Q.v C B u T _ _ I I *.e./.3X#X/.#XB.#XB.#XB.M.m.s.M.m.B.B.#XB.B.#X+XB.#X3XB.d.j.h.s.h.s.",
"w q g g R X.J.J.u.r.+.[ I I I e.C.B.#X#XN.n.| P 0.w.j.).3X/.B.V.B.B.#XB.%X#XB.1X(.^.!.v C B C T _ ] [ ] 0.i.).`.B.).#XB.B.C.M.M.m.m.c.c.N.V.).).#XC.#X#XB.#X1XU.j.h.h.s.h.s.",
"q t g T R ] +.+.[ [ [ [ I J I e.N.h.d.h.s.0.] I I [ q.h.d.h.s.d.M.B.B.B.V.M.d.d.j.h.J.b B B U ) _ _ I I P 0.e.i.s.h.d.j.M.#XC.#XM.M.m.m.N.d.e.s.p.s.p.j..XB./.j.h.s.q.q.q.q.",
"4 n W g B Q _ ] ] H H [ [ [ I 0.q.q.q.q.w.0.P ] J [ 0.t.q.q.>.e.d.N.N.m.m.p.q.e.u.u.$.V Z C C C _ _ ] ~ D H [ [ 0.0.q.s.#X#X+X@X+X@X+X+XB.p.0.[ :.:.:.e.^./.I.f.e.q.:.:.0.>.",
"t t g E C Q R ] Z ] ^ ! I [ [ 0.w.t.:.q.0.[ P F [ [ *.0.q.0.;.e.d.m.d.m.d.p.q.q.i.w.+.F C Z ) Z Z R ! H F ! I I *.I q.s.#X#X+X+X+X+XM.+XV.s.I J :.I ;.e.j.N.j.h.s.q.*.;.>.:.",
"B 4 E g U W R ) R ] ] ] [ [ [ r.0.r.r.r.r.+.~ ] ] [ +.0.w.0.:.w.n.N.e.N.i.i.w.q.u.+.] ~ C Z K C Z Z _ R Z _ ] ] H I 0.h.1X1X#X.X X|.|.|.).h.! P ] P I y.^.E.I.i.t.q.:.:.:.:.",
"4 4 g g E Y ) Z N ~ ] [ ^ o.+.+.r.r.H.u.o.[ ] P [ ] [ 0.0.0.0.i.N.n.m.N.h.i.w.w.J.+.] ] C Z Z ) R R Z F Z P ] ] I [ 0.h.1X1X$X.XXXXX X$X/.e.X.@.] } I y.^.^.I.i.e.t.:.:.0.0.",
"t 4 f g g T ) ) Q ) ' X.' X.o.X.X.A.D.$.@._ ) _ X.X.X.o.Z.Z.D.D.J.Q.R.Q.J.T.A.A.D.X.' ' T d T T ) ) Q ) ' ' _ ' X.X. .R._._._.'.(.(.^.(.~.J.X.X...' X.l.Q.W.E.E.J.#.o.o.+.o.",
"t t g g U T T T C T Q Q R X.Q R B V R Z C Z L _ _ ) R ~ R ! ~ ~ X.] X.X./ X.X.X.' ' Q d t r y d ) T ) Q T R T Q Z R Z X.+.+.r.( J 0.0.J { ] W R ) ) Z _ X.@.+.+.] ] Z Q ! R ",
"t t W g U U U t B U T T T W T t 3 3 6 < 0 u i C T u a a U a U u a a a a E E E W W W g r 2 < 3 a T ) T g g u u u d t t u d t a r t a t t t u a a u u y C Z C Z Z U U a s s p ",
"t t g d u a U t u B g T T T T t < < 6 8 0 e K K U d U a a t a a a a a a U a E E W W t r 2 3 < y g T d ) U d u u t t t t u t a a t t y t v t t t t t y y C C V V B u s s p p ",
"q 0 y w w w e e u C C R T ) ' u r 8 8 p y u ) L V Z Y B u t u y t u u C U C T T Q T y w 0 6 : w K K Z Z V V B B B B u C t a d d u C n n B B n C V B V V N K M e C e B B B W ",
"u B ) d u e C C K C R C T Q T a 2 r r 8 0 C _ _ R R Y R U Y y y y 0 q r t t u C u u w 0 * & : w w C Z Z R R V C U C u u u a d g T U Z Z B V Z C C B M Z L L K K C C T T Y Y ",
"J J 7.*.&.=.*.*.J J Z L C _ ) B 5 2 2 7 p E [ ~ H H ^ H J J G G &.*.&.&.&.-.-.6.6.=.*.G S S A J :.*.J J J J H F F R T C t t u U Y ! J &.H H N N D P D J :.>.=.;.*.J ! ! ! ! ",
"r.i.I.K.s.f.f.h.i.y.} ] _ _ ' T 5 2 2 8 r Q { o.[ +.+.r.r.H.h.`.7X8X8X8XwX5X2X2X3X7X7X7X].).).`./.^.^.^.^.^.K.K.R.R.T._ t t u T X.$.0.w.y.[ } P I P +.t./.B.m.d.h.e.u.u.r.J.",
"U.1X1X1X#X1X/.3X).N.y.| ] +.o.E 5 2 1 7 t ` u.r.0.i.i.I.j.h.p.j.#X$XXX$X;X;X;XXX$X$X#X#Xd.d.j.B.B.3XB././.U.K.I.K.J.D._ U t t E 8.L.I.^.n.e.| ,.y.q.f./.4X8X4X&X1X/.^.N.^.^.",
"1X1X1X3X2X#X3X3X].N.y.[ ! ] X.B 5 < 1 8 v T r.u.0.t.i.P.B.h.a.j.4X2X>X9X;X>X9X9X2X$X#X#X1X#XB.B.B.B.#X3X`./._.^.!.E.J.] a 4 u Q r.P.^.I.n.e.| | w.0.q.U.4X8XqX9X3X#XN.^.^.^.",
"XXXX#X|..X+XB.).).h.:.P ! ! ] V 3 % 2 < q Q 0.w.6.0.q.h.j.a.2.|.;X>XoX:X=X=XoX:X*X;X@X$X@X+X+X|..X.X.X2X1XU.I.Y.!.K.J.~ B t a E G.G.P.j.i.q.[ [ 0.=.9..X<X9X;XXX#X|.s.s.m.v.",
".X|..Xj.|.a.s.d.N.e.w.w.[ r.A.Y 3 3 8 8 u ' t.r.q.t.h.h.B.d.|.|.oXoXoXoXoX XoXoX X@X@X|.+X+X+X+X X.X.XXX/.j.i.t.J.J.o.! B v a W 7.G.t.t.t.e.w.y.e.q.f.a.<X<X XXX#Xd.n.m.N.N.",
"f.U.U.h.p.e.0.w.w.e.e.w.u.i.K.^ t t r y V X.i.i.q.p.m.m.#X+X.X.XB.B.N.n.n.V.v.V.M.N.|.#X#X#X+X+X#X+X|.|./.s.[ +.+.+.X.R a t a W ^ r.0.0.0.q.h.h.j.j.j..X,Xj.d.d.B.h.h.h.^.j.",
"f.j.j.h.e.;.I P I w.e.i.i.E.K.+.B u u d V X.I.i.p.p.m.M.|.B..X.XB.M.v.N.V.v.v.m.m.M.|.d.+X+X+X+X@X|..X$XB.s.^ J { ] ] Z a t a T ^ ( 0.0.*.q.j./.j.U.j.j..Xj.B.d.h.d.h.h.N.I.",
"u.i._.E.u.w.] _ P | v.v.N.^.E.[ B n C u Z #.K.h.3.m.M.M.M.+X1XB.h.I._.I.K.h.^.h.N.N.d.B.M.M.M.M.+X+XM.+XV.<.P P ] _ _ Z d u a g ' X.I I J e.,X1Xj.#XB.B.N.v.b.n.n.n.I.I.I.I.",
"E.i.E.i.w.[ ] P D | e.v.n.^.E.0.B n u C Z $.j.N.3.3.M.M.M.B.1Xj.j.h.I.K.I.K.N.E.h.N.N.B.d.B.M.B.+X+X+X@XC.<.N L _ L ) C u u u g _ _ P P *.e.,X1X1X#X#XM.n.v.n.n.i.^.^.I.I.U.",
"h.h.N.h.e.,.P P :.w.e.h.h.^.!.^ B q u d R D.I.P.q.n.M.#X#X#X1Xj.h.h.E.n.n.n.h.N.h.B.d.+X|.+X#X|.+X+XB.).3Xe.G G I I ] Z t q u T L ] I P *.<.#X#X#XB.B.m.m.s.h.i.N.N.n.h.i.^.",
"h.h.B.N.i.q.+.{ ,.w.e.e.i.E.Y.^ t C u d Z X.t.t.:.w.d.B.B.3XU.j.I.h.h.I.n.n.s.n.d.M.+X+X#X$X$X+Xd.M.s.s.s.s.i.t.b.w.$.M u t B T } } x.w.<.p.j..Xd.d.M.m.m.B.^.j.i.i.i.u.i.i.",
"#X#X+XV.m.d.u.i.t.q.e.t.t.K.J.^ t t d y C Q ( ( P ] d.g.1X,XB.j.h.h.N.h.s.s.m.m.|.4.@X+X$X>X9X X1.>.0.0.q.s.<X<X/./.W.n C n n R #.R.V.N.s.m.d.d.s.m.m.m.B.#X,X.Xs.1.| | | ,.",
"|.#XM.+Xm.p.u.w.i.i.t.e.J.K.J.! u t d s B Q 5.^ N | f.,X1X1X/.j.d.h.m.h.m.m.m.m.d.M.}.@X$X>X2X.Xq.>.0.*.=.f.<X<X/.^.W.l N q q R } b.N.N.s.s.h.d.M.s.c.m.B.#X$X.Xs.<.| w.| k.",
"m.B.C.B.h.e.u.u.y.u.w.u.J.J.J.Z.B u d u d T ( ! H { f.I./.`.`.I.^.^.E.h.n.N.n.N.B.m.B.B.2X5X5X.Xe.q.[ ] 0.e.j.j.^.^.!.n U v t T @.R.n.b.v.n.n.n.n.n.m.V.B.).`.U.n.i.%.#.%.%.",
"B.B.B.B.d.e.$.u.u.y.u.u.J.J.J.Q u u s d U ) X.] ! { e.U././.^.^.I.h.N.n.i.n.n.n.N.B.B.#X2X4X6X.Xi.0.| [ 0.i.1X/.^.^.E.B C t u ) @.T.E.E.n.n.n.n.N.n.v.V.^.)././.i.u. .} #.} ",
"i.v.N.n.i.u.#.%.$.#.@.} @.$.Z.Q t u a a u T ' _ ] +.r.J.E.E.E.E.K.J.J.J.u.J.u.R.b.E.E.(.].7X7X_.u.u.} ] } b.n.(.E.W.Q.C U t a g Z.S.R.Q.R.R.b.R.b.R.b.E.E.!.Y.!.K.H.o.Z.+.o.",
"J I :.0.J F ~ R _ N Z n M B B t t 3 r r u U Q Z V Z J ^ J ^ [ ] ! ~ ^ ! H ~ H ! ^ H D N b b A A A V C M c N D D D m Z 4 t 3 r a U U n ; ; x N n V Z N N F D F F Y Y R R R R ",
"n n V V n n t B t t 3 < 3 % % 3 5 r 2 r r r U u u t t t t t t q v t t B t t q q q n n C Y V V B u U T g C u M n u C s r 2 1 2 8 6 < < < 3 r u u B B B U Y B U U Y u a t u u ",
"n V Z Z V n t q t q 3 % % % % 3 5 < 6 8 3 y a a t t t t t t v t t v t t q B q n q q n B V B v v t t u r e e n n q q y 6 2 2 2 1 , , * % * 3 t t t u B B B B v B t t t t y u ",
"C U X.W W B u u d t 8 2 < 2 r 6 6 r r w r s E a d g d d d j h d d u d d d U y e U T d d d U g d s f p s u d C u d u s y p 8 8 2 7 7 8 7 0 r d g d d g a U E Y Y U u y w y y ",
"t u g W R T T W W T s r r 6 2 2 & , , , < 6 5 p w r w r 6 9 w s d d u t u u y t u u t t d d d g g j h d t y 0 q 0 y 6 6 7 1 1 1 7 X & X & < p s a a t a a U U Y t a h h s d ",
"t q U T R R F ] ' R T E d U R _ +.+.5.6.6.f.,X,Xg.g.g.a.g.g.f.f.@. .o.$.r.y.7.7.+.+.S.u d u d h ^ ( 7.0.9.f.g.g.a.a.a.2.a.a.f.f.t.7.( +.X.o.X.X.X.X.X.o.+.+.J.+.X.] Z L ) K ",
"t u f T R ' +.+.o.o.' ' ' ) ) S.~.~._._./.5X,XwXwXwX6XwX8X8X8X1Xu.%.J.u.K.i.`.`.!.R.S.t h u s g H.H.P.G.f.,X8XwX6X2X4X2X5X6X8X5X`.U.!.~.~.J.$.$.D.D.A.J.~.E.J.J.$.X._ _ _ _ ",
"u q f T ! ] e.w.0.r.+.+.[ ] [ r.n.n.i.v.a.#XoX;X*X*XOXOX*XOX-X@Xx.x.N.j.s.s.d.s.E.E.Q.v T t t ) t.I.m.s.4.+X-X@XOXOXOXOX*X*X=X*XB.B.u.n.n.n.e.e.i.e.i.e.e.I.^.K.w.w.I I | [ ",
"n e a a Z [ w.0.r.^ A.( +.! ^ y.E.n.n.n.|.#X:X:X=X=XOX=X-X=X@X@Xv.v.s.s.h.s.h.m.E.E.D.B C t y ` P.P.s.s.4.+X;X>X*X=XOXOX=X=X;X*XB.B.b.n.n.b.e.w.e.w.e.i.h.N.^.j.e.w.P I I I ",
"q q a T F ! q.0.0.0.( [ I I J w.N.v.p.d.|.#X;X:X>X>X*X@X&X@X&X+X3.3.e.3.q.e.v.m.N.i.%.B u t y T h.I.e.e.4.#X$X4X;X$X-X-X;X;X;XXX+Xd.m.m.s.e.>.1.<.>.>.p.s.h.h.h.q.:.I J P P ",
"q q t Q H +.q.e.w.r.+.+.[ I I u.V.N.h.d.|.$X$XoXoX@X@X X@X@X+X|.m.m.p.s.s.m.V.V.^.`.D.4 t 4 t y P.f.<.m.d.d.d.|.|.|. X@X*X;XoXoX+X+Xm.m.h.d.d.s.p.p.s.m.h.B.B.h.e.e.0.0.,.w.",
"q > U T ~ u.N.^.i.i.%.%.y. .:.v.B.B.B.M.|.+X.X#XB.B.B.N.N.N.m.m.h.N.n.N..X.X>X>X$X9XT.; r 3 0 6 I.K.v.v.v.e.e.q.e.s.h.j.1X/..X.X#X.XM.+XM.M.#Xd.+XB.B.B.B.#X/.N.N.n.n.e.i.n.",
"0 > a Q ! J.I.^.E.i.u.b.y.y.,.n.B.C.M.+XM.|.#Xd.j.B.N.N.m.h.N.d.h.N.N.i.a.#X$X9X9XwXT.- t 3 r 6 K.^.v.n.m.v.q.0.t.e.f.U./.,X.X.X#X#X#XM.M.#XM.#XM.#XB.B.B.B.B.B.N.N.n.n.N.n.",
"q q u T ^ r._._.E.K.y.y.w.| :.v.B.B.#X+X#X#Xj.B.B.B.V.N.N.N.h.h.N.h.n.E.j.$X;X;X<XwXT.; t 3 r < Y.Y.v.n.N.e.e.e.e.e.e.N.#X#Xj.B.#X#X|.+X+X+X+X+X#X+XB.B.B.B./.).^.h.N.i.i.I.",
"q ; U a ! K.I.I.K.i.u.y.w.| ,.e.B.B.#X#X#X#X#XB.B./.N.N.h.n.h.h.n.h.^.n.B.#X;X:X<XwXT.- r 3 r < I.I.v.n.N.e.w.q.e.q.i.I././.B.#X#X+X+XB.+X#X#X#X#X#X#X#XB.B.B.B.^.N.N.^.^.E.",
"> q T t / E.P.Y.E.K.u.u.w.y.q.e.V.B..X#X#X#X/.B.B.N.N.N.j.i.n.h.i.n.E.E.d.B.$X&X<XwXJ.- t < r 5 Y.Y.n.E.n.i.q.e.e.e.e.d.B.B.B.B.B.B.+X#X#X#X#X#X#X#X#Xj.j.j./.^.^.N.K.i.N.E.",
"0 q E a ! J.t.t.t.t.b.u.v.u.e.n.B.).#XB.B..XB.d.B.N.N.h.N.I.N.i.w.y.#.y.p.s.@X@X<XXX$.q t 5 p f H.J.w.w.w.i.n.^.h.h.h.N.C.B.B.B.+X#X#X#X#X+X#X#X#X#X#Xj.s.h.h.e.e.t.u.i.u.e.",
"; C a T F ( r.r.0.t.i.h.N.N.d.N.j.#X.X.Xj.d.j.d.h.d.h.N.N.N.E.e.[ [ ! ] J w.m.N.V.h.$.n t t a Q ( ( J J :.s././.B.#X#X#X$X#X#X#X+X#X#X+X.X+X.Xd.#X#XB.d.q.q.e.q.0.0.[ [ 0.[ ",
"- C t a Y ( 7.7.7.q.e.h.N.h.d.N.#Xj..X.X.Xj.s.s.s.s.s.N.^.N.^.w.I H H H I [ v.v.N.i.k.x C t t T ! ^ I J G t./.1X#XB.+XB.+XM.M.|.+X+X.X+X|..X.X|.j.#X#Xa.>.q.e.e.0.:.I I I [ ",
"- ` f T / A.G.t.0.q.h.j.N.j.j.j.U.1X1XU.j.j.h.s.h.h.i.^.E.E.W.y.~ ~ ] ) ^ r.f.U._.K.Q.q ' u u E / A.r.7.5.f././.1X,X.Xj..X|..X.X#X#X.XB..X#XU./.U.5X`.j.t.t.i.t.#.r.}  .} } ",
"  r a p Y ! ^ ^ *.5.q.t.f.s.h.f.j.j.2X1X1XU.j./.I.B.^.N.n.n.R.u.$.$.$.$.r.K.U.U.t.w._ - < - t u Y Q ^ F G t./.5Xj.#X#X.X.X.X#X1X#X1X#X#X1X1X1X3X5X/.I.t.5.*.[ ^ ~ D Z Z Z Z "
};
