/* XPM */
static char *f2d360d329e84cf29f7e70f057014b36X8rsrTOzAtQ4j2kH[] = {
/* columns rows colors chars-per-pixel */
"86 86 252 2 ",
"   c #1D0109",
".  c #170111",
"X  c #1B0113",
"o  c #1B0219",
"O  c #270907",
"+  c #2B1205",
"@  c #34170C",
"#  c #2B0B15",
"$  c #24061A",
"%  c #310D16",
"&  c #2D161C",
"*  c #3B1B15",
"=  c #351A18",
"-  c #3A1E1D",
";  c #2D211C",
":  c #362319",
">  c #3A211D",
",  c #280B21",
"<  c #2B1727",
"1  c #2E1C23",
"2  c #331D24",
"3  c #371D28",
"4  c #351E33",
"5  c #342324",
"6  c #3C2323",
"7  c #352927",
"8  c #3C2A26",
"9  c #34232C",
"0  c #3D262D",
"q  c #3D292E",
"w  c #3E322C",
"e  c #362532",
"r  c #3D2632",
"t  c #3C2933",
"y  c #3A2834",
"u  c #3D2A39",
"i  c #431C14",
"p  c #431B1A",
"a  c #46241D",
"s  c #562A19",
"d  c #582D1B",
"f  c #58331B",
"g  c #633319",
"h  c #441F23",
"j  c #432425",
"k  c #4C2525",
"l  c #452A26",
"z  c #42252C",
"x  c #4A262C",
"c  c #43292C",
"v  c #4B2A2C",
"b  c #552B26",
"n  c #473228",
"m  c #593525",
"M  c #553921",
"N  c #422632",
"B  c #4A2631",
"V  c #422A32",
"C  c #4B2C34",
"Z  c #46263B",
"A  c #422A3A",
"S  c #4A2B3B",
"D  c #532E33",
"F  c #5D2E32",
"G  c #463135",
"H  c #4B3136",
"J  c #453238",
"K  c #4D333A",
"L  c #543235",
"P  c #5B3334",
"I  c #54343B",
"U  c #5C343A",
"Y  c #573A3C",
"T  c #5D3A3D",
"R  c #663523",
"E  c #643C2A",
"W  c #6A3A2C",
"Q  c #763C2B",
"!  c #753C2C",
"~  c #652F38",
"^  c #633537",
"/  c #6B3534",
"(  c #6D3C34",
")  c #653C3B",
"_  c #6C3D3C",
"`  c #713730",
"'  c #743D34",
"]  c #793E34",
"[  c #733E3C",
"{  c #783D3B",
"}  c #5A443D",
"|  c #6B4228",
" . c #784326",
".. c #74412C",
"X. c #79412B",
"o. c #6D4334",
"O. c #684539",
"+. c #6D413D",
"@. c #6D4D39",
"#. c #734135",
"$. c #7C4334",
"%. c #754A37",
"&. c #73413B",
"*. c #7B433B",
"=. c #775134",
"-. c #4A2745",
";. c #432C42",
":. c #492A43",
">. c #483141",
",. c #563C41",
"<. c #5D3C43",
"1. c #633D43",
"2. c #6C3E42",
"3. c #643E49",
"4. c #743D42",
"5. c #763E46",
"6. c #5D4242",
"7. c #5C4347",
"8. c #5E4750",
"9. c #654244",
"0. c #6C4243",
"q. c #674946",
"w. c #64424A",
"e. c #6C444A",
"r. c #724243",
"t. c #764646",
"y. c #6A5248",
"u. c #71534C",
"i. c #7E574B",
"p. c #6C4C53",
"a. c #7C5B58",
"s. c #7C5C65",
"d. c #7B5C68",
"f. c #8B502A",
"g. c #83493A",
"h. c #8A5437",
"j. c #8C523B",
"k. c #97593C",
"l. c #A45D3A",
"z. c #9E6227",
"x. c #9A6538",
"c. c #9C653C",
"v. c #9D693D",
"b. c #A66A2F",
"n. c #A76736",
"m. c #A46A37",
"M. c #A4663C",
"N. c #A9663C",
"B. c #A4693D",
"V. c #A9693D",
"C. c #824D44",
"Z. c #884C46",
"A. c #8D5344",
"S. c #8D534A",
"D. c #885949",
"F. c #965A47",
"G. c #9A5B4D",
"H. c #845B54",
"J. c #865956",
"K. c #9A5E53",
"L. c #9A5C57",
"P. c #A65F49",
"I. c #8D624F",
"U. c #9D6542",
"Y. c #9E6943",
"T. c #9C644C",
"R. c #946848",
"E. c #9E6B4C",
"W. c #96764A",
"Q. c #98794A",
"!. c #8D6352",
"~. c #8B6758",
"^. c #946353",
"/. c #9C6453",
"(. c #986958",
"). c #8D7651",
"_. c #987859",
"`. c #A46644",
"'. c #A96642",
"]. c #A46943",
"[. c #A96A43",
"{. c #A3664A",
"}. c #A86748",
"|. c #A36A4B",
" X c #A96B4A",
".X c #A77648",
"XX c #AA744A",
"oX c #A46353",
"OX c #A96554",
"+X c #A36A53",
"@X c #AB6A55",
"#X c #A4645A",
"$X c #A4695C",
"%X c #AB695C",
"&X c #A37A54",
"*X c #A87856",
"=X c #B47D55",
"-X c #B77F58",
";X c #8E6A66",
":X c #976966",
">X c #967969",
",X c #957B73",
"<X c #A76963",
"1X c #A57560",
"2X c #A07D7D",
"3X c #98814D",
"4X c #B1874E",
"5X c #AE8258",
"6X c #B38254",
"7X c #B88156",
"8X c #B48A57",
"9X c #B3855B",
"0X c #B9845C",
"qX c #BB8A5D",
"wX c #BD915E",
"eX c #9B8066",
"rX c #9E8175",
"tX c #AC866C",
"yX c #B88A66",
"uX c #BE9B63",
"iX c #BB9768",
"pX c #BE956A",
"aX c #BE9A6A",
"sX c #A88576",
"dX c #BD9677",
"fX c #BD9B73",
"gX c #B4957E",
"hX c #BCA267",
"jX c #BCA273",
"kX c #C28E5E",
"lX c #C38D65",
"zX c #C49664",
"xX c #C39B65",
"cX c #CA9D66",
"vX c #C3956B",
"bX c #C9966B",
"nX c #C49B6B",
"mX c #CA9B6C",
"MX c #C48B77",
"NX c #C39671",
"BX c #C49B73",
"VX c #CB9B72",
"CX c #C79A78",
"ZX c #C4A169",
"AX c #C3A173",
"SX c #C7A379",
"DX c #D2A172",
"FX c #B69682",
"GX c #B89782",
"HX c #BBA18A",
"JX c #C39D85",
"KX c #C4A389",
/* pixels */
"nXnXaXnXnX5Xv.Y.].}.'.'.B.].oXoX6.- c 8 N r V q r r v T &.#.] [ [ ' ( &.*.W c x y u + ,XjXaXnXiXpXc.].v.].B.'.].{.{.].N.B.'.{.Y.I.d l l ;.o 3XjXBXVXnXxXaXaXaXaXfXaXaXuXfXfX",
"nXaXaXaXxX5XY.c.}.].N.'.v.].{.oX9.> c 0 r c t r r u v U &.%.] #.[ #.#.*.&./ x x u u + >XjXjXmXiXyXv.].v.B.].].'.{.].'.B.B.V.E.Y.R.d 8 j ;.o Q.jXnXnXxXnXaXaXpXaXaXaXaXaXfXiX",
"nXnXnXnXbX5XU.c.|.].'.B.B.B.oXOX6.2 z 8 q c u t r u v T r.r.#.( +.&.+.&.0.E V x u t + >XBXBXmXiXlXv.].B.B.V.].'.'.{.'.'.].].E.E.!.f z x ;.o Q.jXvXVXzXmXnXaXnXnXaXnXnXmXfXiX",
"nXnXnXmXmX6XY.U.].{.'.'.B.'.oXoX6.- q 0 q q r r r N C T r.r.&.[ +.r.r.t.t.^ x V y V + ,XSXAXmXmXvXv.].v.].B.B.M.}.}.].'.}.].E.|.(.d z l ;.o 3XjXvXnXxXxXBXBXnXnXBXnXnXVXjXfX",
"nXbXbXmXbX=XU.M.{.}.'.N.M.V.oX{.6.- c 0 q q q t r N C ,.e.0.2.9.2.0.0.q.q.U V V u t + >XCXCXbXvXlXU.].M.B.B.M.'.{.'.`.}.}.{./.(.~.b z N ;.o 3XjXnXnXcXxXbXmXmXbXbXbXbXmXNXvX",
"=X6X5X=X=XXX].U.].'.'.'.M.V.oXOX6.6 c 0 q q V q r u B C U L L F L P P P P v V c u t @ ~.yX=X=X=X=XU.].].B.B.'.'.'.'.}.k.h.h.A.j.i.d x N u o 3XjXnXVXZXkX6X=X=X5X6X6X=X=X7X9X",
"c.v.M.].M.B.'.`.`.`.'.B.M.V.oXOX6.> c 8 q c t V N r 3 r z 0 z z x z z j 0 c N r r t i i.Y.U.].].`.`.].B.B.B.'.B.`.'.+Xk.! ! #.o.1.k y u ;.o 3XhXiXZXmX7XY.v.].].M.U.M.U.{.`.",
"Y.c.].M.B.B.'.'.{.}.N.'.m.V.OXOX9.2 c 0 q r N r u r z z z z z z j z z 8 z c V t 0 u i i.E.U.{.].U.'.].].B.B.'.B.'.}.@Xj.! ! ' o.+.k r y ;.o 3XhXiXBXcX8X].Y.U.v.U.].M.c.`.{.",
"].].}.}.].'.`.{.|.{.`.'.M.].oX+X6.- q 0 q q c r r r r u t t t r r V t V t t t y q t i H.@X}. X|. X|.`.`.].].].M.{. X+XA.&.&.r.r.e.x N N -.X 3XjXvXBXcX0XXX].}.'.'.}.'.'.}.}.",
"{.].'.'.].'.{.`.{.{.`.].M.]./.oX6.- N 8 N q r q r r u r y r q r q q q r y t y y 7 t i H.oX{.|.`.{.{.`.].v.].c.B.{.].oXj.{ { 0.r.3.x 4 Z ;.o ).iXiXSXDXkX}.{.}.'.}.'.'.}.{.}.",
"T.R.T.T.T.T.T.T.^./.T.U.R.T.L.L.,.- N q r q r r r u r r t y r 0 0 0 t q e y y u t V i a.K./.G.T.T.T.T.T.T.T.T.T.T.T./.Z.[ [ r.r.2.x 3 z u < !.gXyXdXyX1X].].].B.`.M.N.N.`.'.",
" ... . .Q Q X.Q ..Q  . .Q  .` g.K 8 q q q q r t r r u r y r r 0 y 0 0 y y y y y 0 u a ^ ! ! Q Q ! !  .X... .X. ...Q ' ' 4.{ [ 4.2.h N B A 3 | @.| E Q h.].].'.M.N.M.n.N.'.'.",
"o.o.o.@.o.o.o.#.#.+.o.#.| o.&.&.V t 9 0 r r y y u y u r r 0 N r N r r N r u y u y 9 x U &.r.[ [ #.#.#.#.#.&.+.o.#.+.[ [ [ { [ r.+.b z z r N 1.2.=.| ] Z.c.Y.M.B.M.M.V.n.'.'.",
"o.o.o.o.o.o.o.( o.#.#.o.O.O.[ +.G q q q q r e y u r r r q N q N N N u r r r y y y t v L &.&.[ ( +.+.+.#.( ' #.+.+.( _ 2.4.&.4.&._ b z h u 4 ~ 5.| E / C.U.|.].].V.m.V.B.'.].",
"r.4.4.{ 4.{ 0.2.9.0.4.2.5.4.2.5.K q t t t r y u y y r r q q r q 0 r 0 N q r q t t r c I e.e.4.5.5.{ 5.4.5.5.5.5.5.5.2.5.0.e.0.0.w.k V r N 3 ~ t.#.[ { S.{.+XE.oX|.|.{.`.T.{.",
"[ 4.[ 4.4.{ 2.0.+.9.2.4.4.5.2.3.G q t t t r y u y y r r q t c t r 0 r 0 r q q t q q x I e.r.4.2.4.5.5.4.5.5.5.5.2.5.5.5.0.3.0.9.9.D z 6 t 9 1.e.#.( { Z.T.T.E.{.E.E.].`. X+X",
"V G G C G G C C C C S C S G S A N N r r r r r r u y 0 q q q q c q q q 7 q q 0 q 0 q z C C D H C C G G G H H H H J J K K C S C C A c q 0 t q ) 1.{ { ] *.t.j.C.C.C.C.g.g.g.g.",
"c c c V c V c c B B B z N C C N V t r r N r r u y y q r q q q q q t c q c q q N c N c 0 z z 6 8 6 6 6 8 9 7 7 7 0 7 6 z B N B B N N 0 0 q r <.1.4.{ { ' ! ( ' ( ( ' ` ! ! ] ",
"0 z r 0 r 0 N z 4 h r r y r Z N c c N c V c V c c z r q y y 0 q c c z z 0 z c c N z r B B N 8 q q c 8 c c c c c c c q r 0 N y 0 r 0 0 0 r r ) 1.4.4.[ ' +.#.&.[ r.r.[ &.{ &.",
"N 0 0 r c r z r z r z r r r r r c 0 0 z z 0 0 0 0 0 9 q u t 0 V 0 c C V V V V A V C V C C N t 7 w c w c c q c c N q q q N z r 0 0 0 t 0 q q T q.4.r.[ #.&.#.r.4.r.4.r.[ { [ ",
"N N N N N N N u N u u u u y 0 0 l j j j j j j j a > 0 q u u N r - % # O # # # # # # # # # # O & = = : > > = : * : : 2 6 r N r r r N r q r z Y e._ 0.( 0.+.+.2.2.3.2.2.2.e.2.",
"r N N r u u N r N r r r u y r N C H L L L L L L L L H V e u N 2 9.a.a.;Xa.a.H.d.s.s.d.d.s.s.s.s.u.} 9.6.} q.q.O.O.} w.<.0 u 0 r 0 N c r c 0 L <.) ) _ ^ ) ) 1.) 2.3.2.3.2.~ ",
"z z r z r r r 0 r 0 e e y e q J ^ ) 0.2.2.0.+.+.O.+.7.K e u S $ :XFXfXjXhXhXZXhXhXhXhXhXhXhXCXBXCX/.#XoXoXoXoXOX%XoX:XJ.1 q 0 q r 0 N r r V N 0 x 0 0 z j 8 z 0 N z h z z 3 ",
"N N N N N N 0 r N r u u u e q A T +.0.0.r.0.&.#.+.+.7.V e u A $ >XJXfXfXuXuXuXuXuXuXhXuXuXhXNXpXMX/.%X%X@X@X@X@X%XOX<XH.2 q t t 0 q r r N u z 0 z h j 6 0 j 0 z N z N N N 3 ",
"z N N r r c r t c q r t u r 5 w / _ [ [ 4.[ { { ' ( w.l q t ;.X Q.nXpXCXBXNXNXNXNXBXBXNXNXBXNXbXwXv.m.v.B.c.M.m.B.x.oXZ.= w c t r q r u N u r N t t t q t t y y 4 Z u r y e ",
"N N z 0 0 0 N q q q t t u y 5 G / _ 4.4.[ [ ` { ' #.w.x q t S X Q.ZXaXBXBXNXvXNXBXBXNXBXNXBXnXvXwXv.B.v.B.M.m.M.`.c.#XA.= q t V 0 0 r N r N u u t t y y 7 t y y Z 4 Z N y t ",
"N 0 u r y u y u u y y y t t 7 w / { { 5.[ [ { { ] { e.v r r Z X Q.AXxXZXxXuXpXxXaXxXnXxXxXxXcXxXkXx.m.B.m.V.n.N.m.M.%XF.; t w t r 0 0 0 r r V B B z B B B B B x B B h B v z ",
"r 0 r r y u u u A u y y t q 7 w / { { { { { { { ] *.e.B 0 N Z X Q.AXnXZXuXxXiXuXxXnXnXiXiXxXcXzXkXx.m.B.V.m.n.n.V.M.$XA.1 w u t y r 0 0 r C K 7.3.7.7.3.w.<.1.3.3.3.3.3.7.<.",
"q q q q t t V A A u 0 r l 8 w 8 / _ { r.[ 4.{ { [ { 3.B Z Z Z $ Q.jXuXnXuXuXuXuXaXaXhXaXuXnXnXzXkXv.B.B.B.B.N.N.B.M.$XS.1 y y u r u z 0 n n P e.4.5.5.5.r.r.[ 4.&.r.*.&.2.t.",
"7 7 9 9 q 7 4 e e 0 4 e 8 8 8 : _ [ 4.&.[ 4.4.{ 4.{ 5.B r u :.X Q.jXuXaXxXxXuXxXZXnXZXaXaXnXnXbXkXv.XXB.B.B.N.n.B.M.$XA.1 y y u N r 8 6 a a P 1.5.2.4.2.4.{ [ [ { [ [ [ ( r.",
":.:.-.-.:.-.-.-.-.-.;.;.A ;.A 9 ) _ _ +.2.2.r.4.4.2.<.B r N :.o Q.NXiXmXxXxXxXxXvXnXnXvXnXbXbXvXlXY.].].].B.V.M.B.B.<XA.; q w t v c C N V V O.O.#.#.' #.%.#.#...#.#.....o.%.",
"$ $ o $ o o $ $ $ , , , 4 < 1 2 ) r.0.0.e.e.t.e.r.r.8.S r r ;.$ R.BXnXnXxXmXmXmXnXVXVXnXnXnXVXnXlX].].B.B.M.V.B.].M.$XD.1 y q q 6 6 & 2 0 < b P R R R R R R R R R R R g m E ",
").W.W.W.W.W.Q.Q.W.W.x.f.f.f.C.%.T U I I I I Y Y I L I A N e ;.< x.yX5XyX7X9X0X0X9XyX0X-X-XyX0X0X=X{.].].B.].].B.].c.$XS.1 q 8 c b i.=.h.f. .v.=XQ.&X&X5X&X_.*X*X&X&X*X&X&X_.",
"BXSXjXBXBXAXjXjXjXjXaXQ.E. X1X^.} j 8 0 x z x j j z 0 z N e u < =.W.x.c.x.c.U.U.x.U.U.U.F.T.Y.{.].k.].].].].B.].B.B.$XS.1 q z z a ;X/.+XB.x.qXVXBXBXfXfXCXBXBXNXNXCXCXBXdXdX",
"fXpXnXpXiXzXnXxXpXiXyXv.Y.Y.(.#X6.- V c r q q q c c C u N r u 1 f.*X|.|.Y.Y.Y.E.Y.|.].].V.}.[.].`.`.c.`.].].V.N.].v.$XS.2 q z j a :XT.+XB.x.0XbXaXaXaXaXnXfXvXNXpXBXvXnXpXCX",
"CXAXAXVXZXBXAXmXnXaXmXv.|.]./.$X<.= N 8 r z c 8 0 q r r N 0 ;.< g.@XE.{.E.|.|.`.{. X].].B.B.`.'.U.`.U.`.{.'.B.B.].v.$XS.1 t j l s :X+X+X].M.qXmXnXnXBXnXCXCXCXBXCXAXBXVXCXKX",
"nXvXvXzXzXcXzXbXnXxXzXM.B.Y.oXoX6.> r q q q t t q t q 7 r c A 3 g.$XG.T.E.{.|.{.Y.{.].B.B.B.'.B.].].].].B.B.M.B.B.M.$XS.2 0 j z d K.+X+X'.F.kXbXaXaXnXnXNXvXpXBXnXvXvXvXNXCX",
"vXpXzXvXxXxXzXzXvXyXqXB.B.].#XoX6.> q 0 q q t q q q t t 0 r A 9 g.#XT./.T.{.U.E.{.Y.c.M.N.N.B.B.].].].].].'.M.M.B.c.$XS.2 y j j b H.+X+X'.l.0XVXaXnXnXpXpXpXvXpXpXiXiXvXvXNX",
"Y.|.].Y.].v.Y.].].].V.B.l.'.#XOX6.> r 8 q q 7 q e q 9 t q 8 c = ^ &.#.*.#.' ' ' $... .k.'.}.B.].].'.].'.B.`.N.N.].B.<XS.1 q j c d ^.+X+X'.l.lXVXaXfXnX9X X X]..X].Y.B.B.|.}.",
"Y.Y.Y.Y.].B.v.B.Y.B.B.V.N.P.OXOX6.> r 0 q r y t q q q t q q z 6 ^ &.] #.' ' ! #.$.Q  .k.[.'.M.].'.].].'.'.B.N.n.].v.<XS.1 t j v b !.+X+X'.M.0XmXaXnXBX8X XE.Y.].Y.Y.c.].Y.`.",
"{.|.'.|.'.'.`.'.`.}.'.'.N.N.P.OX6.2 c q r q V t r r r 0 7 q c j ^ 0.2.r._ +.0.r.t._ ' A. X X].`.].`.].].'.B.B.'.].c.:XS.< t 8 c d I.E.+X'.x.6XbXpXAXVX9X].{.'.'.].'.N.'.'.'.",
"|.{.{.].'.].{.`.`.].'.V.N.'.OXOX9.> V r q q q t r r 0 y q 8 v j P r.2.0.r.2.[ r.&.( ..A.@X X].].{.].].[.}.}.'.'.].M.<XS.1 t c c s !.E.|.m.l.kXmXpXAXVX9XXX{.'.'.B.'.'.N.`.'.",
"].{.].].].V.].'.{.].N.N.N.V.@XOX} > c 8 q t V r r r u e t w V z I w.1.0.3.e.4.2._ [ *.S.+X+X{./.E.oX+X/.|.oXE.Y.|.R.:XS.1 y l c d I.E.|.V.k.kXcXaXnXVX0X X'.'.].B.`.N.N.].`.",
"`.`.].M.N.'.'.B.'.'.N.N.N.V.OXOX6.= q 8 q q V r N N e r q t c 8 C I P L F U 2.2.4.4.$.C.j.j.j.j.j.j.h.j.j.h.h.h.h.h.S.r.9 y l c d I.E.|.N.N.XX=X=X9X7XXX[.'.'.`.`.B.'.N.'.'.",
"].].M.].B.B.'.B.].M.B.B.m.V.OXoX} : c 8 c t V r N r r u y 7 9 0 z N x 0 j D 1.5.4.4.{ ' ' ` ' ' ( ' ( #.( #.....W ( 4.F y e w t d I.{.].n.N.n.M.x.c.].M.].`.M.].M.].'.B.].].",
"].].].'.V.V.B.].].].N.B.V.V.oXoX} : c q t c r N u u r u y y t q 0 0 z z h D 2.0.5.5.{ { ' { ' ] ' ( ( #.#.#...W | ( 4.F y e c c d I.{..Xl.N.N.N.v.M.B.c.c.`.M.].v.].B.B.].].",
"{.T.{.{.}.{.{.{.+X{.}.{.{. X#X#X6.> q 8 c q c r N V r 0 y t 0 r N N N z z D 1.e.5.r.r.r.4.r.r.0.0.0.0.r.q.0.0.0.+.0.e.,.y y c c s I.]. Xn.M.V.V.].].{.].].].].].].].B.'.].U.",
"{.T.{.E.{.{.{.{.{.T.Y.Y.U.].#X(.6.: c q c q q c r N r y t t r r r q c 0 z S 1.1.2.2.2.2.2._ 2.2.2.2.0.0.+.0.+.+.+.O.3.U u y v l d I.E.{.M.N.V.B.B.M.].B.].Y.].].].].'.B.].`.",
"/.K.^.K.K.G.^./.^.K.^.G.G.T.L.#XY 2 c 0 0 8 0 8 N r c 0 3 N N N V N r 8 0 G Y 6.T T <.<.<.<.<.<.1.<.<.<.<.<.1.1.<.1.,.K u e x l d !.Y.|.B.].V.].'.].`.`.{.].{.].{.{.'.'.{.`.",
"' Q ! ! ] ! Q ] ! ' Q ! ..Q { 5.L 0 8 0 q z t c q z q r r r u r N N z q q q z c c z x l z z B B B x N B B z x z k h N z u Z k z d I.|.|.B.B.'.B.].].`.E.|.|.].{.'.'.M.`.Y.`.",
"+.[ &.&.&.[ ( #.#.&.#.#.! ] [ [ C x 0 0 t t t r r 0 N V N N N u Z u r r r t V q c 8 z N N N V B N Z Z N N N B N x z y r r r x x b !.+X+Xc.M.B.].`.'.`.`.].].].{.`.'.`.'.{.T.",
"[ #.[ #.#.#.&.o.#.&.' ! #.] [ 4.S z r N r y 7 9 6 9 e 0 r r e r r N r r q q 0 q z 0 z 0 0 0 0 0 r z z 4 r 0 0 z 0 z y r u u c z d :XE.+XB.].'.'.{.}.{.{.]. X].}.}.}.}.`.{.{.",
"0.q.0.0.+.+.0.0.+.+.o.( ....o.o.D j N u y y y y r r N N N Z Z Z N B 0 0 t t t t r t c r c N 0 q r r N u N N r r t t w y 0 t c c b :XK.(.`.`.`.P.{.{.|.`.|.{.].].E.{.'.{.{./.",
"9.2.9.0.O.+.) +.+.) #.%.W ..&.( C z 0 2 9 e y y q q r 3 r r e A Z 4 u r y 7 7 y r q V V c N N N Z r V r r N V N 0 t 7 y 7 y z z h :X/.$X{.{.`.`.{.}. X}.}.]. X].{.{.}.{.|./.",
"C C C C C c C x H j +.sXyXpXtXtXtXtX8XyX8XXXU.c.L.L.F.P.k.x.A.F.p.z N 0 q 0 9 0 y y c I +.) ) ) ) ) 2.1.2.U C x 9 q q 7 q q l 8 k u.*.*.$.g.$.g.*.*.$.$.%.$.g.$.$.$.$.g.$.*.",
"B x N N x z x z v - @.FXSXSXdXCXJXJXjXDXZX4XE.Y.#X#X'.}.m.M.T./.p.6 N r q q t y u y l I 0.+.+._ 2.1.2.0.e.1.C z y 7 y y 7 7 l z k e.%.*.Q Q $.$.{ *.$.$.X.$.X.X.$.$.$.X.] *.",
"r u r r r r r 0 A & @.FXuXZXZXxXxXkXxXcXnX9X].v.}.'.'.'.|.|.#X<Xp.= c j c c u r u y h P { &.] ] ] ] { { t./ D x 0 q y w 7 7 c c x 3._ _ { &.[ 4.2.4.[ 2.[ #.[ ( _ [ 4.( _ 4.",
"r N r r r r r r V & @.GXuXZXxXcXxXxXxXZXAX9X].B.'.].'.'.E.oXOX%Xu.* c 6 8 q t t A e k ,.t.*.{ ] ] ] ] C.C./ D x 0 0 7 q w 7 8 c k 1._ r.{ #.r.4.0.2.2.4.&._ [ [ _ 4.&.{ r.r.",
"r u N u r r u u G & @.FXxXZXxXxXxXxXxXZXcX4Xm.x.V.V.N.N.M.B.P.%Xu.* 8 8 q t u u u u B ,.t.e.e.0.e.e.2.e.5.3.S B e y 7 y t 7 z c x 3._ 4.{ *.{ { 4.[ _ &.+.[ r.r.0.0.0.0.e.e.",
"r r r r u r r u A 2 @.FXxXZXxXxXxXxXxXZXcX4Xx.m.'.'.N.N.B.m.P.@Xu.* c 0 r 0 u y u e B S U ^ P ^ ~ P ~ ~ -.D Z B 9 t y y t q c N k 3.2.4.[ &.r.{ [ 2.[ &.[ &._ &.0.) F P ) P ",
"r r r N r 0 u r C 1 y.FXuXmXxXmXaXaXxXxXZX4XB.v.].].V.V.m.m.`.@Xu.* V 0 u u u u r u N N N N r N u r Z r N r r r 0 t y t y y N V x 3.2.r.[ [ { ] [ #.#.[ [ #.0.0.0.D j h V 2 ",
"r r r r r r r r V 1 %.FXyXZXxXxXaXpXaXmXcX4XY.v.}.].N.V.m.m.{.@Xu.* V 0 r r u y u r r r r z r r e r r r r N r N y t t t y y q N x 3.4.0.{ { &.{ ' { #.#.&.#.0.r.3.F h h c 2 ",
"r 0 r q r q r r V 1 %.GXbXVXvXvXNXnXmXmXcX6X].v.}.'.M.V.m.m.{.@Xy.* N 0 e u l 8 c c c l c l c c c c z x l c l c l l 8 0 N u c N l 3.0.e.0.0.+.r.&.+.0.&.0.+.9.0.w.L j 0 A 3 ",
"c r q N r 0 r 0 N 2 @.GXvXmXvXmXvXnXmXmXcX6XY.Y.}.'.N.V.m.x.P.@Xu.* N 6 N 0 5 6 - 6 > a 6 > > 6 6 6 6 6 6 j > > 6 > 6 8 u y r z l w.0.0.2.r.r.r.+.0.&.+.+.+.0.0.w.D 0 j H 6 ",
"r z q q z N 0 0 c 3 o.gXbXbXbXvXvXnXbXVXmX6X].].'.{.'.'.v.m.T.@Xu.* q 8 N 0 } M M M M M M M M M M M f M M M f M m m M M y y q 0 l 9.w.9.9.3.0.9.+.9.9.9._ 9.9.9.w.K 6 0 u e ",
"q r r c r q r r c 0 E >X]. XY.].|.E.].}.].].'.{.{.'.B.B.v.B.{.@Xu.* c 0 3 8.gXFXgXgXgXgXgXgXgXgXgXgXFXFXFXFXgXgXgXFXHX~.& r 0 N c v x v x v v v v v l v v k v x C x 0 r u 9 ",
"z c r r c t N q r 9 m ~.[.XXM.].Y.|.Y.].].B.].B.`.`.`.].Y.|.oX%Xy.= V n 2 3.fXfXgXCXfXfXdXfXfXfXfXdXfXfXfXfXAXAXJXgXSX_.X >.0 r c c z c N z B 0 r z c V x x z z z c N 0 e 9 ",
"r q q q q q r q N 0 E ~.{.].c.M.Y.U.v.Y.c.B.M.].|.`.`.|.|.}.OX<Xu.* c G = <.fXfXdXfXfXfXfXfXfXfXfXfXfXfXfXfXBXfXCXdXSXQ.. A 0 r 9 8 0 z 0 z 0 0 0 0 q q z z z z 0 c r 0 e 9 ",
"q r N q r 0 t t V 5 E (.].[.'.V.`.{.M.].B.B.v.].].{.{.{./.oXoX<Xy.: v v p 9.uXxXNXvXzXmXmXxXxXmXnXvXmXcXnXxXbXzXbXCXVXQ.$ N t V q q N z N 0 r r e y u y t N N N r N N 0 y 9 ",
"c q 0 r r q 0 t V 5 E ~.].[.].].{.].].'.B.B.B.B.Y.].{.U.$X$X<X#Xy.: > 6 = T uXhXNXNXbXxXnXmXnXmXnXnXmXmXmXmXzXbXNXCXSXQ.$ 3 r N 7 q N 0 0 r A N y e y y c r z N r 0 r 0 y 9 ",
"r r r q 0 q t e G 2 E (.V.[.V.N.B.'.N.N.M.M.n.N.B.B.).=.y.y.e.t.O.P U ^ F 2.4X5X=X7X=X7X6X6X0X-X=X=X-X-X-X=X-X-X=X=XtXE.D 3.<.T T T ) T P L C V q y y q 0 q r 0 0 N r q y 9 ",
"r q r 0 t t t t V 7 R (.V.V.n.N.B.N.B.N.N.n.n.M.B.].).f @ @ p * P 0.0.t.e.t.v.v.`.c.x.x.x.x.c.x.x.c.x.c.c.x.M.M.].c.R.h.1.3.9.3.1.1.9.q.e.O.K V y t 9 t r N c q N 0 c r w 9 ",
"r r q q r r q r c 8 R ~.B.B.M.M.`.B.M.B.m.V.M.m.v.v.!.f v v v j ( r._ _ [ t.].].B.{.V.].}.'.}.}.{.}.}. X}.}.}.'.M.}.@XF.r.[ r.4.&.&.&.{ +.W P v c 0 0 q N N r V V t q r t 2 ",
"r r q V N 0 q q c 9 | ~.x.B.'.[.'.}.'.}.[.[.[.[.]..X(.d 6 v j - P t.4._ 4.t.c.Y.].'.B.B.].M.`.M.`.`.`.P.`.`.N.}.M.'.oXA.4.( [ [ { { &.*.#./ L v q 0 0 t z z c r r r N q V 2 ",
"N q r q r r y y u 3 ) ;X#X%XoXoX/.(.#X/.$X+XOXOX+X#X:XD q t c j ^ &.4.[ { t.M.Y.`.{.[.V.B.c.M.c.Y.U.].].B.B.m.B.B.V.|.j.Q Q ..] ! ] ] &.r._ I v 0 e y t r r r r u r r c V 9 ",
"0 N q r r 0 y t y 0 P H.G.G.G.G.L.L.G.K.G.G.G.G.G.G.H.P 7 q c z F r.r.2.{ t.c.B.}.].V.[.XXXX.X.X&XXXXXXX.X6X].].B.'.|.k.g.*.g.*.g.' [ *.r._ L C t 7 q y u r r r r u N r V 5 ",
"q N r c r r A u u u 0 0 l 8 7 8 0 q 7 q 0 0 z 0 j c t q u y V z P r.&.[ ' t.Y.Y.|.E.B.6XcXcXxXxXuXaXiXxXzXcXm.m.B.B.].].{.Y.oX|.L.g.( &.e.3.K C y 9 t y u r u r u r z N C 6 ",
"c 0 q N r V u V u u 9 0 l 8 6 7 7 0 q 7 0 7 8 j 8 c q t u e C z P e.[ ( [ *.Y.Y.{.`.B.7XZXcXxXxXhXuXxXxXzXcX.XB.m.M.B.].|.].|.{.oXQ &.#.e.1.I C t t t r N u u u r u N N V 6 ",
"u r N r N q z c z z z c c l 8 l c c q q N c V N x N t t y y u 0 U q.0._ ' r.T.E.{.E.Y.8XxXcXuXuXaXaXaXiXkXmXXX].M.].M.M.m.B.Y.E.(.! &.+.e.1.I C 8 8 0 0 8 8 c 8 0 z l x v - ",
"r r q q q c V A x x c v c v c j q c 9 0 0 0 c z 0 z q t y y V 6 P e.r.+.[ *.E.+X|.T..XqXcXxXzXiXaXaXnXnXxXmXXXB.U.].M.B.V.B.E.Y.(...&.+.0.e.Y x c z z c c V V c V V x l c 5 ",
"e y t t c 6 * * i i a i * * * p j k j j j j x z z l c q q q r 0 :.p.2.2._ &.^.(./.T.R.yXxXZXnXaXBXfXbXBXvXVX X{.{.`.M.B.V.m.Y.Y.(.#.0.+.9.) H % @ @ @ @ @ @ @ * @ * i p p i ",
"y y 0 0 6 w.;X~.D.H.H.H.H.;XH.H.9.T T T 6.<.<.<.3.,.K V q 9 N q B ,.F D m P o.#.X...g 9XAXAXnXnXpX5X5X&XXX=X}.'.{.{.].].m.m.E.E.(.R m b I x ;XsXsXsX>XsXsX,XsX,X2X;XH.H.J.H.",
"y u z c * i.+X/.].].E.].(.$X(.1X*.( %.[ [ _ 2.r.4.0.1.P j j c B Z z 3 0 8 7 ; ; : : O ).CXBXvXpXyXc.V.v.].M.l.'.].'.'.N.m.M.{.].R.d p p C   _.FXNXJXSXVXBXSXCXBXBXtX/.E.#X@X",
"e u 0 0 @ a.@X{.]..X X|.T.oX^.$XC.( &.#.&.r.&.r.2.0.1.D 3 h z z h z c 0 5 7 8 w > n + eXCXNXNXvXlXx.B.M.B.M.N.'.'.}.'.N.n.V.Y.{.T.s p k K   5XKXMXCXNXdXfXfXBXCXdX1XT.U.K.%X",
"u >.K K i i.'.l.m.b.m.n.'.}.oX@Xg.` ] ] { ] { { [ 4.2.~ k k B B S S Z Z A Z A A G J + ,XKXFXCXNXbXc.'.M.'.'.[.'.}.P.}.}.}.}.+X+X^.g x x ;.o 3XAXzXbXzXzXcXkXxXcXbX=X'.`.OXOX",
". . X   O ( l.P.z.z.n.z.}.{.oXOXg.Q Q ` ` ` / ` / / ^ k % O % % , $ & , & < 3 4 e 9 O ,XKXGXJXCXlX`.'.l.'.N.[.'.'.}.'.P.U.`.T.T.D.s % O < $ W.iXbXbXkXcXcXbXcXmXnX5XF.U.OXoX"
};
